<?xml version="1.0" standalone="no"?>
<!DOCTYPE svg PUBLIC "-//W3C//DTD SVG 20010904//EN"
 "http://www.w3.org/TR/2001/REC-SVG-20010904/DTD/svg10.dtd">
<svg version="1.0" xmlns="http://www.w3.org/2000/svg"
 width="1024.000000pt" height="1024.000000pt" viewBox="0 0 1024.000000 1024.000000"
 preserveAspectRatio="xMidYMid meet">
<metadata>
Created by potrace 1.14, written by Peter Selinger 2001-2017
</metadata>
<g transform="translate(0.000000,1024.000000) scale(0.100000,-0.100000)"
fill="#000000" stroke="none">
<path d="M0 5120 l0 -5120 5120 0 5120 0 0 5120 0 5120 -5120 0 -5120 0 0
-5120z m6368 3948 c19 -19 14 -46 -9 -53 -31 -10 -55 16 -40 44 13 24 31 27
49 9z m-2926 -157 c2 -77 -5 -91 -49 -91 -27 0 -29 14 -8 54 8 15 15 32 15 37
0 16 30 82 35 78 2 -3 5 -37 7 -78z m4710 -99 c-2 -37 0 -84 5 -103 5 -18 7
-42 5 -52 -4 -17 -5 -17 -22 -2 -20 19 -171 49 -207 42 -37 -7 -26 16 25 51
26 18 79 54 117 82 39 27 72 49 75 49 3 1 4 -30 2 -67z m77 30 c20 -16 71 -52
114 -81 42 -30 77 -57 77 -62 0 -5 -23 -9 -51 -9 -28 0 -78 -7 -111 -16 -33
-8 -61 -14 -63 -12 -6 7 -15 208 -9 208 3 0 23 -13 43 -28z m-5659 -77 c-11
-37 -21 -69 -22 -70 -12 -8 -100 10 -105 21 -13 33 6 60 56 78 27 9 57 23 67
31 11 7 20 12 21 11 2 -1 -6 -33 -17 -71z m4549 -38 c1 -16 9 -42 18 -58 21
-34 12 -46 -22 -31 -14 7 -36 13 -48 13 -12 1 -4 5 18 9 35 6 31 8 -35 10 -41
2 -87 2 -102 1 -16 -1 -28 2 -28 6 0 5 42 35 93 66 90 57 92 57 99 35 3 -13 6
-36 7 -51z m127 33 c54 -22 99 -40 101 -40 2 0 3 -4 3 -9 0 -5 -15 -12 -32
-15 -18 -4 -58 -17 -89 -30 l-56 -23 -17 71 c-17 74 -19 86 -12 86 2 0 48 -18
102 -40z m-4856 -34 l0 -44 -71 -37 c-39 -20 -73 -35 -75 -32 -3 3 -2 36 3 74
l8 68 65 6 c36 3 66 6 68 7 1 1 2 -18 2 -42z m870 -8 c57 -40 61 -45 58 -78
-4 -44 -32 -54 -35 -13 -1 31 -58 86 -82 81 -8 -2 -21 -22 -29 -45 -13 -41
-42 -60 -42 -28 0 19 52 124 62 125 3 0 34 -19 68 -42z m189 -28 c11 -24 11
-24 -3 -6 -9 11 -16 24 -16 30 0 12 5 7 19 -24z m-84 0 c3 -5 -3 -10 -14 -10
-12 0 -21 5 -21 10 0 6 6 10 14 10 8 0 18 -4 21 -10z m3971 -50 c-13 -23 -26
-36 -28 -29 -3 9 -11 6 -26 -9 -12 -12 -20 -22 -17 -22 3 0 -4 -10 -15 -22
-12 -13 -26 -32 -31 -43 l-10 -20 17 20 17 20 -8 -20 c-4 -11 -9 -34 -10 -50
-1 -28 -24 -82 -25 -60 0 6 -7 53 -15 105 -8 52 -13 95 -12 95 1 1 27 12 57
24 30 12 71 30 90 41 19 10 36 17 38 16 1 -2 -8 -22 -22 -46z m1048 9 c-22
-25 -60 -48 -49 -30 4 8 -1 10 -17 7 -12 -3 -44 -8 -70 -11 -32 -4 -48 -11
-51 -23 -4 -13 -5 -11 -6 5 -1 19 7 23 57 33 31 6 75 17 97 24 57 19 60 19 39
-5z m-5933 -94 c15 -58 24 -105 22 -105 -3 0 -26 19 -51 41 -26 23 -66 51 -89
62 -24 12 -43 23 -43 26 0 4 23 17 51 31 28 13 55 30 61 37 6 7 13 13 17 13 3
0 18 -47 32 -105z m5574 90 c102 -23 120 -30 119 -48 0 -9 -2 -68 -4 -129 -2
-90 -4 -104 -10 -68 -4 25 -6 48 -4 51 6 11 -22 60 -29 52 -4 -3 -7 1 -7 10 0
11 -7 15 -21 12 -13 -3 -19 0 -16 8 3 7 10 11 16 9 7 -1 10 2 6 8 -5 8 -11 8
-19 1 -9 -7 -16 -7 -26 2 -7 6 -5 0 5 -15 9 -15 22 -25 28 -21 6 3 7 1 3 -5
-4 -6 0 -25 9 -42 26 -50 11 -34 -39 40 -26 39 -44 76 -40 82 4 6 3 9 -2 5 -5
-3 -19 10 -32 29 -25 39 -23 39 63 19z m-1627 -1 c84 -9 108 -31 116 -110 4
-32 2 -72 -3 -89 -9 -30 -9 -29 -10 11 -1 23 -4 56 -8 75 -5 27 -8 30 -13 14
-6 -17 -8 -15 -15 13 -5 24 -11 32 -21 28 -8 -3 -13 -2 -10 3 8 12 -29 21 -44
11 -9 -6 -8 -9 6 -13 12 -3 7 -5 -13 -6 -45 -2 -63 -11 -63 -32 0 -17 -3 -17
-20 -7 -10 7 -20 21 -22 32 -2 11 -9 21 -16 24 -11 4 -12 0 -2 -19 10 -20 10
-22 -1 -11 -7 6 -21 12 -31 12 -10 0 -31 7 -46 16 -21 13 -23 13 -9 1 15 -13
16 -17 4 -24 -8 -4 -17 -15 -21 -23 -3 -8 -4 -3 -1 13 3 15 2 27 -2 28 -5 0
-21 2 -36 4 -21 3 -27 0 -23 -10 3 -9 0 -12 -9 -8 -8 3 -13 8 -11 12 3 4 -3 8
-12 10 -29 6 -2106 12 -2130 6 -31 -8 -52 -60 -52 -130 0 -30 -4 -55 -10 -55
-6 0 -10 31 -10 73 0 110 23 139 115 150 55 7 2359 7 2423 1z m660 -34 c34 -6
66 -9 71 -6 4 3 11 -27 14 -67 4 -40 9 -90 12 -112 4 -30 -2 -20 -23 40 -22
61 -30 74 -34 57 -4 -12 -3 -20 2 -17 4 2 8 -6 8 -19 0 -21 -4 -20 -36 18 -20
22 -54 61 -76 85 -30 31 -36 42 -21 38 11 -3 48 -11 83 -17z m-4798 -70 c19
-17 28 -30 21 -30 -7 0 -26 -11 -43 -25 -36 -30 -51 -31 -95 -4 l-34 21 53 33
c29 19 55 34 58 34 3 0 21 -13 40 -29z m5019 -5 c-12 -19 -23 -35 -25 -35 -6
0 14 40 29 58 18 23 16 12 -4 -23z m-915 -55 c19 0 42 7 50 16 15 14 16 14 16
-4 0 -28 -23 -35 -125 -36 -79 -1 -199 9 -152 13 10 0 16 4 13 9 -2 4 14 6 37
3 28 -2 44 1 52 12 8 11 16 13 26 6 12 -7 12 -9 0 -9 -8 0 -12 -2 -9 -5 10
-10 38 7 39 24 0 11 3 9 9 -6 7 -18 17 -23 44 -23z m-275 -4 c-9 -8 -23 -10
-39 -6 -23 8 -23 8 8 9 17 1 32 6 32 13 0 6 3 8 7 4 4 -3 0 -12 -8 -20z m2029
-71 c-3 -3 -9 2 -12 12 -6 14 -5 15 5 6 7 -7 10 -15 7 -18z m-4238 -81 c0 -25
-4 -43 -9 -40 -12 8 -12 86 0 86 5 0 9 -21 9 -46z m1520 16 c0 -6 -78 -10
-215 -10 -214 0 -216 0 -225 -22 -8 -22 -9 -22 -9 -2 -2 41 13 44 236 44 135
0 213 -4 213 -10z m-914 -7 c-299 -3 -403 -6 -415 -16 -14 -11 -14 -10 -2 6
12 16 43 17 415 15 l401 -3 -399 -2z m1474 0 c-133 -7 -370 -7 -370 0 0 4 96
6 213 5 116 -1 187 -3 157 -5z m370 0 c0 -5 -44 -7 -97 -5 -181 5 -199 8 -50
10 81 1 147 -1 147 -5z m-1952 -100 l3 -53 -40 0 -41 0 0 48 c0 58 5 64 45 60
29 -3 30 -5 33 -55z m162 15 c0 -5 -5 -6 -10 -3 -6 4 -19 4 -28 0 -14 -6 -12
-10 13 -21 l30 -14 -30 2 c-32 3 -48 34 -25 48 15 9 50 1 50 -12z m-1044 -31
c20 -23 24 -39 24 -93 l0 -64 -255 0 c-237 0 -256 1 -274 19 -18 18 -18 19 21
13 34 -4 44 -1 60 19 18 22 19 22 13 3 -4 -16 1 -24 20 -32 33 -15 33 -16 30
11 -1 12 -3 30 -4 40 0 9 -8 17 -16 17 -14 0 -19 12 -16 33 0 4 -3 7 -9 7 -5
0 -10 -6 -10 -12 0 -10 -2 -10 -8 -2 -14 22 -135 26 -966 31 -695 4 -837 2
-831 -9 6 -10 5 -11 -5 -1 -11 10 -17 9 -32 -4 -13 -12 -18 -31 -18 -75 0 -32
-4 -58 -10 -58 -6 0 -10 28 -10 64 0 70 22 111 63 119 12 2 514 4 1115 3
l1094 -1 24 -28z m691 27 c-3 -3 -12 -4 -19 -1 -8 3 -5 6 6 6 11 1 17 -2 13
-5z m4962 -18 c18 -16 21 -31 21 -92 l0 -73 -347 2 c-192 0 -301 2 -245 4 80
3 102 7 94 16 -8 9 0 11 32 9 38 -3 44 -1 49 19 4 13 9 21 12 17 10 -10 -7
-40 -29 -48 -15 -6 -3 -9 42 -9 34 -1 62 3 62 8 0 5 18 9 40 9 23 1 38 -3 35
-9 -4 -5 14 -9 39 -9 25 0 46 5 46 10 0 6 3 9 8 9 39 -6 74 3 79 21 3 11 9 20
14 20 5 0 6 -7 3 -15 -9 -22 13 -44 36 -38 17 5 20 14 19 62 0 31 -3 51 -5 45
-3 -8 -19 -8 -52 -2 -70 14 -263 12 -272 -3 -5 -6 -6 -30 -4 -53 3 -36 2 -38
-7 -16 -6 14 -8 40 -4 58 6 31 5 32 -30 32 -20 0 -34 -3 -31 -8 2 -4 -14 -6
-36 -4 -24 3 -35 7 -28 12 7 4 -397 9 -899 9 l-911 2 -25 -25 c-21 -21 -25
-35 -25 -81 0 -35 -4 -54 -10 -50 -14 8 -13 111 1 138 14 25 34 39 69 48 14 4
523 6 1131 5 1074 -1 1108 -2 1128 -20z m-3269 -6 c0 -5 -2 -10 -4 -10 -3 0
-8 5 -11 10 -3 6 -1 10 4 10 6 0 11 -4 11 -10z m386 0 c57 0 64 -2 64 -20 0
-19 -7 -20 -140 -20 -132 0 -140 1 -140 19 0 25 21 31 94 25 32 -2 88 -4 122
-4z m-2076 -40 c0 -5 -12 -10 -27 -9 l-28 1 25 8 c14 4 26 8 28 9 1 1 2 -3 2
-9z m333 3 c-7 -2 -21 -2 -30 0 -10 3 -4 5 12 5 17 0 24 -2 18 -5z m4467 -40
c-1 -31 -3 -35 -11 -20 -6 9 -7 26 -4 37 10 30 15 24 15 -17z m-3769 -14 c5
-8 9 -29 9 -46 0 -36 -8 -39 -82 -27 -38 7 -38 7 -38 54 l0 46 51 -6 c28 -4
55 -13 60 -21z m3436 -6 c-3 -10 -5 -4 -5 12 0 17 2 24 5 18 2 -7 2 -21 0 -30z
m-2714 -10 c-62 -2 -165 -2 -230 0 -65 1 -14 3 112 3 127 0 180 -2 118 -3z
m385 -83 c2 -13 -43 -15 -363 -15 -271 0 -365 3 -365 12 0 6 6 14 13 16 6 3
169 5 362 4 302 -2 350 -4 353 -17z m-1698 -95 c0 -52 -1 -55 -25 -55 -17 0
-25 6 -25 18 0 9 -3 34 -6 55 -6 36 -6 37 25 37 31 0 31 0 31 -55z m-92 5 l3
-35 -62 0 c-54 -1 -64 -4 -85 -28 -26 -30 -32 -84 -14 -118 23 -43 110 -66
110 -29 0 14 7 20 24 20 22 0 23 -3 18 -47 -2 -27 -6 -50 -8 -51 -1 -2 -20 -6
-42 -9 -90 -12 -182 71 -182 165 0 109 69 174 180 169 l55 -2 3 -35z m-2938
-94 c0 -48 -4 -58 -39 -97 l-38 -44 -81 -3 -80 -4 -7 56 c-8 62 1 127 18 138
7 4 60 8 120 8 l107 0 0 -54z m970 -15 c0 -38 -3 -83 -6 -100 -6 -28 -10 -31
-44 -31 -23 0 -63 13 -104 35 -37 19 -76 35 -86 35 -16 0 -19 10 -22 65 l-3
65 133 0 132 0 0 -69z m778 57 c7 -7 11 -39 10 -82 l-1 -71 -6 65 -6 65 -310
0 -310 0 -5 -40 c-5 -33 -7 -36 -13 -18 -10 28 1 71 22 83 25 15 604 13 619
-2z m-1285 -5 c-7 -2 -21 -2 -30 0 -10 3 -4 5 12 5 17 0 24 -2 18 -5z m3332
-28 c6 -2 -93 -4 -220 -4 -126 0 -224 3 -217 7 12 8 415 5 437 -3z m936 -11
c12 -15 11 -16 -6 -11 -11 3 -180 9 -375 13 -195 3 -357 8 -359 10 -2 2 160 4
361 4 327 0 367 -2 379 -16z m-4343 -14 c4 -12 2 -13 -9 -2 -19 17 -39 15 -39
-5 0 -15 -2 -16 -10 -3 -16 25 -11 31 22 28 17 -2 33 -10 36 -18z m6205 3 c-7
-2 -19 -2 -25 0 -7 3 -2 5 12 5 14 0 19 -2 13 -5z m-656 -25 c-3 -8 -6 -5 -6
6 -1 11 2 17 5 13 3 -3 4 -12 1 -19z m33 12 c0 -5 -4 -10 -10 -10 -5 0 -10 5
-10 10 0 6 5 10 10 10 6 0 10 -4 10 -10z m888 -7 c-10 -2 -26 -2 -35 0 -10 3
-2 5 17 5 19 0 27 -2 18 -5z m-2123 -43 c0 -13 -27 -15 -172 -18 -169 -2 -173
-2 -173 18 0 20 4 20 173 18 145 -3 172 -5 172 -18z m-4146 -29 c-24 -19 -24
-19 73 -18 105 2 133 -9 166 -63 l14 -25 -21 24 c-19 21 -21 21 -22 5 -1 -11
-1 -21 -1 -24 0 -3 -21 -5 -48 -6 -42 0 -50 3 -59 24 -13 27 -36 24 -35 -4 0
-16 -5 -19 -27 -16 -15 2 -37 -1 -49 -8 -18 -10 -21 -10 -15 2 5 7 -4 2 -18
-11 -26 -23 -27 -29 -27 -119 0 -81 -2 -93 -14 -82 -8 6 -23 11 -33 10 -39 -5
-43 0 -43 49 0 37 5 53 18 63 23 16 54 63 47 70 -4 3 6 15 21 27 15 11 22 21
17 21 -6 0 -16 -7 -23 -15 -7 -8 -19 -15 -27 -15 -8 0 -11 -4 -8 -10 3 -5 0
-7 -9 -4 -8 3 -24 0 -36 -6 -17 -9 -25 -9 -34 0 -8 9 -8 14 1 17 6 2 31 19 54
36 93 71 132 97 146 97 11 0 8 -6 -8 -19z m2449 -43 c-3 -51 -4 -53 -33 -53
-29 0 -30 2 -33 53 l-3 52 36 0 36 0 -3 -52z m1052 35 c0 -5 -11 -13 -25 -20
-22 -10 -25 -9 -25 8 0 14 7 19 25 19 14 0 25 -3 25 -7z m1010 -109 c0 -6 -8
-18 -18 -27 -17 -16 -20 -15 -40 6 l-22 23 22 27 22 28 18 -23 c10 -13 18 -28
18 -34z m-1460 -35 c0 -4 -27 -18 -59 -32 -32 -14 -62 -30 -66 -36 -16 -28
-25 -4 -25 69 l0 80 75 -37 c41 -21 74 -41 75 -44z m-3817 64 c-13 -2 -33 -2
-45 0 -13 2 -3 4 22 4 25 0 35 -2 23 -4z m1147 -13 c0 -17 -3 -19 -19 -10 -11
5 -34 10 -51 10 -18 0 -29 4 -25 10 3 6 26 10 51 10 38 0 44 -3 44 -20z m6193
13 c-199 -2 -527 -2 -730 0 -202 1 -39 2 362 2 402 0 567 -1 368 -2z m-1146
-20 c4 -10 -82 -13 -371 -15 -434 -3 -407 3 -417 -101 l-6 -62 -1 66 c-2 65
-1 68 33 98 l36 31 361 -2 c273 -2 362 -6 365 -15z m-4357 -13 c0 -6 -47 -10
-117 -11 -65 -1 -149 -5 -188 -9 -53 -5 -24 -7 118 -8 l187 -2 0 -25 0 -25
-164 0 c-90 0 -171 -3 -179 -6 -11 -4 -13 1 -10 19 5 26 -15 37 -69 37 -21 0
-28 5 -28 20 0 19 7 20 225 20 143 0 225 -4 225 -10z m-1473 -11 c43 -16 92
-69 104 -112 25 -93 -33 -186 -129 -208 -69 -16 -153 25 -187 92 -22 41 -19
125 5 164 37 61 136 91 207 64z m4061 -36 c-49 -2 -127 -2 -175 0 -49 1 -9 3
87 3 96 0 136 -2 88 -3z m272 -15 c0 -17 -3 -19 -9 -9 -6 9 -25 12 -65 10 -38
-3 -57 0 -61 9 -3 9 14 12 65 12 66 0 70 -1 70 -22z m210 10 c0 -10 -19 -12
-70 -10 -91 5 -91 22 0 22 49 0 70 -4 70 -12z m-3950 -63 l0 -65 -105 0 -105
0 0 65 0 65 105 0 105 0 0 -65z m1312 23 c2 -15 11 -24 26 -26 28 -4 24 -26
-6 -30 -12 -2 -22 -12 -24 -24 -4 -31 -28 -35 -28 -5 0 18 -7 27 -25 31 -31 8
-33 24 -2 28 14 2 23 11 25 26 2 12 10 22 17 22 7 0 15 -10 17 -22z m-831 -4
c11 -14 9 -15 -21 -12 -18 2 -35 9 -38 16 -6 18 43 15 59 -4z m3239 -27 l0
-42 -46 4 c-32 2 -49 -1 -55 -10 -6 -9 -9 5 -9 39 l0 52 55 0 55 0 0 -43z
m198 1 c3 -36 1 -38 -25 -38 -15 0 -38 -3 -50 -6 -21 -6 -23 -3 -23 40 l0 47
48 -3 c47 -3 47 -3 50 -40z m1922 -20 l0 -43 -50 0 -50 0 0 42 0 43 50 0 50 0
0 -42z m124 36 c10 -4 16 -18 16 -40 0 -29 -3 -34 -22 -33 -22 0 -22 1 -3 9
15 6 9 8 -22 7 -23 -1 -39 -5 -37 -9 3 -4 0 -8 -5 -8 -6 0 -11 18 -11 40 0 39
1 40 34 40 19 0 41 -3 50 -6z m586 -33 l0 -39 -50 -4 -50 -3 0 43 0 42 50 0
50 0 0 -39z m128 31 c18 -2 22 -8 22 -37 l0 -35 -50 0 c-27 0 -50 3 -51 8 0 4
-2 18 -4 32 -3 34 0 37 32 35 15 -1 38 -3 51 -3z m-1269 -39 c-1 -21 -3 -30
-6 -20 -3 11 -11 16 -19 13 -8 -3 -14 1 -14 9 0 9 -10 15 -24 15 -19 0 -25 -6
-28 -27 -3 -25 -4 -23 -9 10 l-5 37 53 0 53 0 -1 -37z m151 0 l0 -38 -55 -2
-55 -1 0 39 0 39 55 0 55 0 0 -37z m140 1 c0 -26 -4 -35 -13 -31 -7 3 -32 2
-55 -3 l-42 -7 0 38 0 39 55 0 55 0 0 -36z m428 6 c-1 -16 -5 -27 -10 -24 -4
3 -8 0 -8 -6 0 -7 -6 -10 -14 -7 -8 3 -29 2 -45 -3 -31 -9 -31 -8 -31 31 l0
39 54 0 c54 0 55 0 54 -30z m142 -6 c0 -19 -4 -33 -9 -30 -5 3 -29 2 -54 -3
l-46 -8 2 38 1 39 53 0 53 0 0 -36z m140 -6 c-1 -40 -2 -42 -15 -24 -8 11 -15
15 -15 9 0 -6 -15 -13 -34 -15 -33 -4 -34 -3 -38 34 l-4 38 53 0 53 0 0 -42z
m-2850 17 c0 -13 -26 -15 -170 -15 -144 0 -170 2 -170 15 0 13 26 15 170 15
144 0 170 -2 170 -15z m1530 -37 c0 -52 -7 -63 -42 -72 -30 -7 -30 -5 -30 74
0 38 2 40 37 40 35 0 35 -1 35 -42z m-2039 -59 c-22 -18 -41 -19 -330 -17
l-306 2 307 6 c273 4 309 7 325 22 9 10 19 15 22 12 3 -3 -5 -14 -18 -25z
m-1410 4 c13 -16 12 -17 -3 -4 -10 7 -18 15 -18 17 0 8 8 3 21 -13z m-1761
-27 c0 -34 0 -35 -37 -29 -45 7 -39 2 -47 36 -6 26 -5 27 39 27 45 0 45 0 45
-34z m120 24 c0 -5 -14 -17 -30 -25 -17 -9 -28 -20 -25 -25 3 -6 -1 -7 -9 -4
-9 3 -16 9 -16 13 0 3 -3 16 -6 29 -6 20 -3 22 40 22 25 0 46 -4 46 -10z
m1743 -17 c-13 -2 -33 -2 -45 0 -13 2 -3 4 22 4 25 0 35 -2 23 -4z m350 0
c-51 -2 -135 -2 -185 0 -51 1 -10 3 92 3 102 0 143 -2 93 -3z m264 0 c-20 -2
-52 -2 -70 0 -17 2 0 4 38 4 39 0 53 -2 32 -4z m3053 -3 c0 -5 -22 -10 -49
-10 -28 0 -53 5 -56 10 -4 6 15 10 49 10 31 0 56 -4 56 -10z m150 0 c0 -5 -24
-10 -54 -10 -30 0 -58 5 -61 10 -4 6 17 10 54 10 34 0 61 -4 61 -10z m150 0
c0 -6 -27 -10 -60 -10 -33 0 -60 4 -60 10 0 6 27 10 60 10 33 0 60 -4 60 -10z
m130 0 c0 -5 -22 -10 -49 -10 -28 0 -53 5 -56 10 -4 6 15 10 49 10 31 0 56 -4
56 -10z m145 0 c-3 -5 -31 -10 -61 -10 -30 0 -54 5 -54 10 0 6 27 10 61 10 37
0 58 -4 54 -10z m145 0 c0 -5 -24 -10 -54 -10 -30 0 -58 5 -61 10 -4 6 17 10
54 10 34 0 61 -4 61 -10z m150 0 c0 -6 -27 -10 -60 -10 -33 0 -60 4 -60 10 0
6 27 10 60 10 33 0 60 -4 60 -10z m135 0 c-3 -5 -31 -10 -61 -10 -30 0 -54 5
-54 10 0 6 27 10 61 10 37 0 58 -4 54 -10z m145 0 c0 -5 -25 -10 -55 -10 -30
0 -55 5 -55 10 0 6 25 10 55 10 30 0 55 -4 55 -10z m140 0 c0 -13 -98 -11
-106 2 -3 4 20 8 50 8 33 0 56 -4 56 -10z m-3238 -27 c-51 -2 -132 -2 -180 0
-48 1 -6 3 93 3 99 0 138 -2 87 -3z m246 0 c-15 -2 -42 -2 -60 0 -18 2 -6 4
27 4 33 0 48 -2 33 -4z m-2920 -23 c61 0 102 -4 102 -10 0 -6 -83 -10 -230
-10 -207 0 -230 2 -230 17 0 14 13 15 128 10 70 -4 173 -7 230 -7z m-918 -24
c0 -11 -19 -15 -25 -6 -3 5 1 10 9 10 9 0 16 -2 16 -4z m1858 -33 c-10 -2 -28
-2 -40 0 -13 2 -5 4 17 4 22 1 32 -1 23 -4z m100 0 c-10 -2 -28 -2 -40 0 -13
2 -5 4 17 4 22 1 32 -1 23 -4z m119 0 c-20 -2 -52 -2 -70 0 -17 2 0 4 38 4 39
0 53 -2 32 -4z m173 3 c0 -2 -18 -6 -40 -8 -22 -2 -40 0 -40 4 0 5 18 8 40 8
22 0 40 -2 40 -4z m390 -3 c0 -5 -51 -7 -112 -5 -205 4 -225 8 -55 10 92 1
167 -1 167 -5z m123 0 c-13 -2 -33 -2 -45 0 -13 2 -3 4 22 4 25 0 35 -2 23 -4z
m305 0 c-42 -2 -114 -2 -160 0 -46 1 -11 3 77 3 88 0 125 -2 83 -3z m560 -5
c-6 -17 -110 -17 -115 0 -4 9 12 12 57 12 44 0 61 -3 58 -12z m-3062 -34 c-3
-9 -6 -34 -6 -57 0 -31 -3 -38 -10 -27 -5 8 -10 34 -10 58 0 32 4 42 16 42 11
0 14 -5 10 -16z m3022 -31 c-4 -39 -28 -42 -28 -4 0 21 5 31 16 31 11 0 14 -8
12 -27z m-3878 7 c8 -5 12 -11 9 -14 -3 -3 -14 1 -25 9 -21 16 -8 20 16 5z
m-389 -38 c24 -26 29 -41 29 -82 l0 -50 -120 0 -120 0 0 69 c0 38 -3 77 -6 86
-6 15 2 17 90 14 96 -4 98 -5 127 -37z m999 6 c0 -76 -4 -78 -127 -82 -27 -1
-43 -6 -43 -13 0 -7 -5 -13 -11 -13 -6 0 -8 8 -5 18 3 9 -1 25 -9 35 -11 15
-17 17 -35 7 -16 -9 -20 -19 -18 -43 2 -27 8 -33 31 -35 16 -2 41 1 57 6 32
12 150 4 150 -9 0 -5 -56 -9 -125 -9 l-125 0 0 70 0 70 44 0 c24 0 59 7 77 15
19 8 58 14 87 15 l52 0 0 -32z m2085 -48 c3 -5 -1 -10 -9 -10 -9 0 -16 5 -16
10 0 6 4 10 9 10 6 0 13 -4 16 -10z m998 3 c-7 -2 -19 -2 -25 0 -7 3 -2 5 12
5 14 0 19 -2 13 -5z m610 0 c-13 -2 -35 -2 -50 0 -16 2 -5 4 22 4 28 0 40 -2
28 -4z m-1038 -36 c16 -4 14 -5 -6 -6 -17 -1 -29 5 -33 15 -5 13 -3 14 6 6 7
-5 22 -12 33 -15z m2040 -17 c17 -7 17 -9 3 -9 -19 -1 -26 -21 -7 -21 5 0 7
-4 4 -10 -10 -16 -75 -12 -75 4 0 43 28 56 75 36z m-2005 -40 c0 -5 -4 -10
-10 -10 -5 0 -10 5 -10 10 0 6 5 10 10 10 6 0 10 -4 10 -10z m-656 -16 c3 -8
2 -12 -4 -9 -6 3 -10 10 -10 16 0 14 7 11 14 -7z m-1209 -24 c-17 -18 -29 -20
-149 -18 l-131 2 126 3 c111 3 129 6 144 23 10 11 20 18 23 15 3 -3 -3 -14
-13 -25z m1740 20 c3 -5 -1 -10 -9 -10 -9 0 -16 5 -16 10 0 6 4 10 9 10 6 0
13 -4 16 -10z m-3164 -33 l624 -2 -626 -3 -626 -2 -19 23 c-19 22 -19 22 2 5
19 -17 68 -18 645 -21z m1738 -42 l-25 -26 -22 24 -22 24 22 25 23 26 25 -24
25 -24 -26 -25z m1481 36 c0 -12 -20 -25 -27 -18 -7 7 6 27 18 27 5 0 9 -4 9
-9z m495 -11 c22 -25 14 -36 -13 -19 -17 11 -24 10 -38 -2 -16 -12 -17 -12 -9
1 25 46 34 48 60 20z m3405 10 c-10 -6 -412 -9 -1100 -7 l-1085 2 1090 5 c600
3 1095 6 1100 7 6 2 3 -2 -5 -7z m-3192 -47 c3 -42 2 -43 -27 -43 -39 0 -41
23 -5 46 31 21 14 37 -24 23 -13 -5 -28 -7 -33 -4 -5 4 -15 0 -22 -7 -12 -10
-11 -17 5 -44 20 -33 57 -48 98 -37 17 4 21 2 18 -8 -7 -22 -77 -24 -95 -2
-10 13 -16 15 -19 5 -8 -18 -40 -33 -58 -26 -25 9 -19 22 11 26 38 4 42 34 8
50 -18 8 -25 18 -23 32 2 17 13 22 48 27 25 4 61 6 80 5 34 -1 35 -2 38 -43z
m-194 -42 c0 -15 -10 -32 -27 -44 -26 -20 -27 -20 -47 -2 -11 10 -20 22 -20
27 0 5 7 2 16 -6 19 -19 36 -20 52 -4 20 20 14 28 -25 28 -38 0 -37 14 2 23
36 9 49 3 49 -22z m-956 -129 c386 2 694 0 684 -4 -9 -4 -328 -7 -709 -7 -616
-1 -693 1 -707 15 -23 23 -20 27 8 9 21 -14 104 -15 724 -13z m1618 3 c-17
-13 -79 -15 -400 -13 l-381 3 382 5 c210 3 385 8 389 13 4 4 12 7 18 7 6 0 2
-7 -8 -15z m-3791 -95 c18 -20 18 -21 -3 -42 -21 -21 -22 -21 -42 -3 -23 21
-25 36 -8 53 17 17 32 15 53 -8z m533 -12 c16 -16 15 -43 -3 -58 -13 -10 -19
-10 -35 5 -25 22 -25 41 -2 54 22 13 26 13 40 -1z m-266 -139 c29 -16 48 -71
47 -136 l-2 -58 -7 63 c-4 35 -12 68 -19 75 -10 9 -11 8 -5 -8 7 -20 7 -20
-15 0 -16 14 -37 19 -81 20 -33 0 -60 2 -60 5 0 9 -140 11 -875 13 -648 2
-716 0 -731 -14 -13 -13 -16 -39 -15 -135 0 -66 -4 -146 -8 -179 -6 -46 -9
-17 -10 127 l-1 186 31 26 31 26 849 0 c590 0 856 -3 871 -11z m6435 -11 c26
-29 34 -54 25 -75 -5 -14 -8 -12 -12 12 -10 56 -2 56 -897 53 l-815 -3 -19
-24 c-17 -21 -19 -43 -21 -245 l-1 -221 -8 215 c-4 118 -5 227 -3 242 3 15 17
37 31 48 25 20 39 20 863 20 l837 0 20 -22z m-2149 -72 c15 -8 38 -26 52 -41
22 -24 25 -36 27 -113 1 -87 1 -87 -6 -21 -8 69 -33 118 -74 142 -17 9 -422
13 -1902 15 -1034 2 -1898 0 -1920 -3 -53 -7 -95 -44 -106 -92 -5 -21 -9 -231
-10 -468 -1 -236 -5 -623 -8 -860 -6 -375 -7 -316 -9 455 -2 988 -6 928 67
977 l34 23 1914 0 c1624 0 1918 -2 1941 -14z m-4431 -28 c-3 -8 -6 -5 -6 6 -1
11 2 17 5 13 3 -3 4 -12 1 -19z m5571 -13 c2 -1 -17 -14 -41 -28 -211 -124
-246 -402 -71 -567 98 -93 214 -127 332 -96 117 30 206 105 256 218 66 145 28
302 -100 416 l-53 48 30 2 c25 2 40 -7 84 -52 29 -30 66 -81 81 -113 26 -53
29 -68 29 -163 0 -95 -3 -110 -28 -162 -32 -64 -111 -156 -161 -187 -50 -31
-187 -54 -275 -47 -92 7 -144 32 -220 102 -111 102 -156 238 -125 373 31 139
158 282 234 264 14 -3 26 -7 28 -8z m-5634 -9 c-7 -19 -41 -27 -67 -16 -19 7
-16 9 15 9 20 1 40 6 43 11 9 15 15 12 9 -4z m119 -13 c-7 -2 -21 -2 -30 0
-10 3 -4 5 12 5 17 0 24 -2 18 -5z m6251 -28 c25 -4 46 -12 46 -17 0 -6 -13
-8 -32 -4 -18 4 -50 9 -71 13 -27 4 -34 8 -25 14 7 5 18 7 24 5 6 -3 32 -8 58
-11z m-1076 -47 c16 -16 15 -28 -3 -28 -8 0 -15 4 -15 9 0 10 -19 9 -37 -2
-15 -9 -16 -6 -7 17 7 19 45 21 62 4z m974 -4 c-24 -17 -39 -14 -27 5 3 6 16
11 28 11 l21 0 -22 -16z m-1218 -19 c-4 -8 -10 -12 -15 -9 -11 6 -2 24 11 24
5 0 7 -7 4 -15z m46 -10 c0 -15 -18 -30 -27 -22 -2 3 -2 15 2 26 7 23 25 19
25 -4z m-2873 -25 c3 -16 9 -30 14 -30 5 0 9 14 9 30 0 23 4 30 20 30 15 0 20
-7 20 -24 0 -14 5 -28 10 -31 6 -4 10 5 10 19 0 20 5 26 21 26 19 0 21 -4 15
-39 -9 -58 -24 -91 -40 -91 -8 0 -18 9 -21 20 -3 11 -11 20 -16 20 -6 0 -7 -9
-4 -20 5 -16 2 -20 -19 -20 -14 0 -26 2 -26 4 0 2 -11 33 -25 70 l-25 66 25 0
c20 0 27 -6 32 -30z m183 -46 c0 -57 -2 -64 -20 -64 -18 0 -20 7 -20 69 0 64
1 69 20 64 17 -5 20 -14 20 -69z m60 46 c26 -37 36 -38 44 -5 5 19 13 25 35
25 16 0 31 -6 35 -15 3 -8 12 -12 21 -9 8 4 17 -1 21 -10 10 -26 24 -18 24 14
0 19 5 30 14 30 14 0 32 -113 20 -131 -6 -11 -54 -12 -54 -1 0 4 -12 21 -26
37 -14 17 -24 23 -21 15 2 -8 7 -25 11 -37 6 -19 4 -23 -13 -23 -11 0 -26 10
-32 22 l-12 22 -8 -22 c-10 -27 -25 -28 -38 -3 -6 10 -18 21 -27 25 -13 5 -15
2 -11 -14 3 -12 0 -20 -8 -20 -8 0 -15 20 -20 55 -10 81 7 98 45 45z m336 14
c-3 -9 -6 -40 -6 -70 l0 -54 -50 0 -50 0 0 70 0 70 56 0 c47 0 55 -3 50 -16z
m124 -3 c12 -24 13 -68 1 -75 -5 -3 -7 -15 -4 -26 7 -27 -23 -27 -32 0 -3 11
-12 21 -18 21 -7 1 2 5 18 9 l30 9 -30 -2 c-26 -2 -30 -6 -28 -29 1 -22 -3
-28 -18 -28 -15 0 -19 7 -20 33 -1 17 -2 49 -4 70 l-3 37 48 0 c39 0 52 -4 60
-19z m-2524 -9 c9 -14 8 -22 -2 -36 -12 -17 -14 -17 -29 -3 -13 14 -14 20 -3
37 16 25 20 25 34 2z m3948 -28 c4 -9 4 -19 1 -22 -3 -3 -5 0 -5 6 0 5 -12 15
-27 20 l-28 10 26 1 c16 1 29 -6 33 -15z m-4370 -12 c2 -4 -124 -9 -280 -10
-192 -2 -284 1 -284 8 0 12 556 15 564 2z m5726 -67 c26 -27 31 -38 22 -47
-20 -20 -80 -14 -104 10 l-22 22 24 25 c31 33 40 32 80 -10z m-7195 -155 c15
-6 97 -11 183 -12 l157 -2 -165 -6 c-172 -5 -189 -2 -237 39 -13 11 -23 27
-23 37 0 15 6 12 29 -14 17 -18 42 -37 56 -42z m1739 28 c-4 -13 -7 -27 -6
-31 1 -5 -1 -6 -6 -3 -5 3 -26 -1 -48 -8 -28 -9 -73 -11 -164 -6 l-125 7 115
1 c132 2 179 13 212 47 27 28 33 26 22 -7z m5635 -12 c43 -43 43 -44 26 -70
-23 -35 -39 -33 -71 9 -14 19 -35 35 -46 35 -18 0 -17 3 9 34 15 19 30 35 33
35 3 1 25 -19 49 -43z m-5036 27 c-13 -2 -35 -2 -50 0 -16 2 -5 4 22 4 28 0
40 -2 28 -4z m597 -103 l0 -110 -225 0 -225 0 0 110 0 110 225 0 225 0 0 -110z
m500 0 l0 -110 -230 0 -230 0 0 110 0 110 230 0 230 0 0 -110z m554 63 c3 -25
6 -69 6 -97 l0 -52 -97 -12 c-54 -7 -171 -12 -260 -12 l-163 0 0 110 0 110
254 -1 253 0 7 -46z m636 -65 l0 -111 -247 7 c-137 3 -272 9 -300 13 l-53 6 0
98 0 99 300 0 300 0 0 -112z m480 2 l0 -110 -224 0 -223 0 -2 93 c-1 51 1 101
5 110 5 15 28 17 225 17 l219 0 0 -110z m498 -2 l3 -108 -229 0 -229 0 -6 83
c-3 45 -3 94 0 110 l5 27 227 -2 226 -3 3 -107z m217 92 c4 -6 -12 -10 -40
-10 -28 0 -44 4 -40 10 3 6 21 10 40 10 19 0 37 -4 40 -10z m-5898 -117 c-2
-21 -4 -4 -4 37 0 41 2 58 4 38 2 -21 2 -55 0 -75z m1210 71 c-3 -3 -12 -4
-19 -1 -8 3 -5 6 6 6 11 1 17 -2 13 -5z m101 -1 c-16 -2 -40 -2 -55 0 -16 2
-3 4 27 4 30 0 43 -2 28 -4z m-178 -68 c0 -13 -39 -15 -270 -15 -250 0 -270 1
-270 18 0 16 18 17 270 14 229 -2 270 -5 270 -17z m408 6 c1 0 2 -6 2 -11 0
-7 -64 -9 -180 -8 -154 2 -180 5 -180 18 0 13 22 14 177 9 98 -4 179 -7 181
-8z m-998 -6 c0 -13 -28 -15 -195 -15 -167 0 -195 2 -195 15 0 13 28 15 195
15 167 0 195 -2 195 -15z m7526 -27 c24 -11 47 -25 50 -30 3 -5 -11 -1 -32 10
-49 25 -137 44 -172 37 -23 -5 -24 -4 -7 5 28 14 109 3 161 -22z m-2156 -267
l0 -290 -36 15 c-20 8 -38 14 -39 12 -2 -2 -8 -19 -13 -38 -7 -25 -10 46 -11
262 -1 163 -4 303 -7 312 -5 13 3 16 50 16 l56 0 0 -289z m823 269 c-64 -7
-124 -43 -115 -69 3 -10 0 -11 -17 -1 -28 14 -17 30 42 59 29 14 59 21 97 20
l55 -2 -62 -7z m1106 -29 c-24 -21 -48 -37 -52 -34 -11 7 12 32 48 55 49 30
51 21 4 -21z m-7842 -13 c-3 -8 -6 -5 -6 6 -1 11 2 17 5 13 3 -3 4 -12 1 -19z
m3806 -75 l-38 -38 -22 22 c-28 29 -59 19 -90 -27 -28 -40 -31 -124 -7 -158
15 -22 15 -22 -40 -22 l-56 0 0 125 0 124 123 4 c67 1 132 4 145 5 21 2 20 -2
-15 -35z m2998 21 c11 -14 9 -15 -16 -12 -16 1 -30 9 -33 16 -6 18 33 15 49
-4z m-3791 -119 l0 -125 -225 0 -225 0 0 125 0 125 225 0 225 0 0 -125z m505
71 c3 -30 3 -87 -1 -125 l-7 -71 -228 0 -229 0 0 125 0 125 229 0 229 0 7 -54z
m1185 -71 l0 -125 -33 0 c-31 0 -73 21 -89 44 -4 6 0 18 8 27 23 26 28 80 10
122 -18 43 -38 54 -70 38 -28 -15 -108 -10 -114 7 -3 9 30 12 142 12 l146 0 0
-125z m480 0 l0 -125 -219 0 -218 0 -7 61 c-3 34 -6 91 -6 125 l0 64 225 0
225 0 0 -125z m500 0 l0 -125 -230 0 -230 0 0 125 0 125 230 0 230 0 0 -125z
m-1605 105 c-11 -4 -53 -13 -92 -20 -80 -13 -141 -47 -174 -96 -18 -27 -19
-28 -19 -7 0 36 66 101 119 117 50 16 201 21 166 6z m-3515 -12 c0 -4 -5 -10
-11 -14 -15 -9 -419 6 -419 16 0 4 97 7 215 6 118 0 215 -4 215 -8z m673 5
c-7 -2 -21 -2 -30 0 -10 3 -4 5 12 5 17 0 24 -2 18 -5z m447 -12 c0 -11 -5
-23 -11 -27 -8 -4 -7 -9 2 -16 9 -6 6 -7 -11 -2 -27 9 -71 8 -107 -1 -21 -5
-23 -2 -23 30 l0 35 75 0 c68 0 75 -2 75 -19z m2635 9 c-45 -9 -186 -18 -180
-12 11 11 78 20 145 20 64 0 69 -1 35 -8z m-3246 -27 c0 -24 -1 -25 -8 -8 -8
19 -20 20 -207 25 l-199 6 208 2 207 2 -1 -27z m414 20 c-24 -2 -62 -2 -85 0
-24 2 -5 4 42 4 47 0 66 -2 43 -4z m3007 -48 c79 -5 77 -25 -2 -24 -80 1 -168
14 -148 21 37 15 46 17 70 12 14 -3 50 -7 80 -9z m-765 -12 c-4 -10 -11 -34
-15 -53 l-7 -35 -12 25 c-15 31 0 80 25 80 12 0 14 -5 9 -17z m4345 -14 c0
-12 -208 -10 -216 3 -3 4 45 8 105 8 72 0 111 -4 111 -11z m-7752 -36 c-32 -2
-86 -2 -120 0 -35 2 -9 3 57 3 66 0 94 -1 63 -3z m232 -1 c0 -4 -21 -6 -47 -4
-76 5 -83 10 -15 11 34 0 62 -2 62 -7z m3985 -92 c3 -5 -1 -10 -9 -10 -9 0
-16 5 -16 10 0 6 4 10 9 10 6 0 13 -4 16 -10z m1803 -43 l22 -23 -23 -22 -24
-22 -18 20 c-16 18 -17 23 -5 45 16 31 21 31 48 2z m-5783 4 c6 -1 6 -4 0 -10
-6 -6 -96 -7 -218 -4 -115 3 -203 9 -196 14 9 5 346 6 414 0z m850 -4 c50 -2
-96 -4 -322 -5 -227 -1 -413 1 -413 6 0 6 514 6 735 -1z m271 -24 l-4 -38 -48
1 c-93 3 -89 1 -91 39 l-2 35 74 0 74 0 -3 -37z m1334 -113 l0 -140 -225 0
-225 0 0 140 0 140 225 0 225 0 0 -140z m500 0 l0 -140 -230 0 -230 0 0 140 0
140 230 0 230 0 0 -140z m143 134 c3 -3 -8 -27 -24 -52 -23 -37 -29 -57 -29
-102 0 -30 4 -71 10 -89 5 -19 9 -36 7 -37 -1 -1 -17 1 -34 3 l-33 5 0 139 0
139 48 0 c27 0 51 -3 55 -6z m1047 -139 l0 -145 -27 0 -28 0 0 83 c0 71 -4 88
-27 129 -16 26 -28 49 -28 53 0 10 43 24 78 24 l32 1 0 -145z m480 5 l0 -139
-57 -3 c-32 -2 -132 -2 -223 0 l-165 3 2 137 c1 75 2 138 2 140 1 1 100 2 221
2 l220 0 0 -140z m500 0 l0 -140 -229 0 -230 0 -3 140 -3 140 233 0 232 0 0
-140z m-1984 77 c-14 -18 -29 -44 -35 -57 -8 -20 -10 -21 -10 -6 -1 26 40 96
56 96 10 0 6 -11 -11 -33z m4129 -87 c-7 -8 -15 -22 -18 -30 -4 -12 -6 -11
-13 5 -4 11 -15 26 -23 33 -14 11 -14 13 2 23 9 5 17 18 17 27 0 12 7 9 24
-13 20 -25 22 -33 11 -45z m-6605 20 c-19 -13 -30 -13 -30 0 0 6 10 10 23 10
18 0 19 -2 7 -10z m456 -12 c-3 -13 -6 -31 -6 -41 0 -16 -8 -18 -67 -15 l-67
3 -4 38 -3 37 76 0 c75 0 77 -1 71 -22z m-223 5 c-24 -2 -62 -2 -85 0 -24 2
-5 4 42 4 47 0 66 -2 43 -4z m-406 -55 c-3 -7 -5 -2 -5 12 0 14 2 19 5 13 2
-7 2 -19 0 -25z m-497 -84 c0 -8 -4 -13 -9 -10 -5 4 -99 9 -208 12 -109 4
-200 8 -202 10 -2 2 91 4 207 4 185 0 212 -2 212 -16z m508 9 c-10 -2 -26 -2
-35 0 -10 3 -2 5 17 5 19 0 27 -2 18 -5z m617 -23 l0 -30 -72 0 c-71 0 -73 1
-73 25 0 24 -1 24 -107 28 -75 2 -52 3 72 5 l180 2 0 -30z m6472 3 c18 -3 44
-16 58 -30 24 -24 25 -31 24 -127 l-2 -101 -12 94 c-9 78 -15 97 -34 112 -22
18 -59 19 -840 19 -723 0 -819 -2 -839 -16 -20 -14 -22 -23 -22 -115 0 -59 -4
-99 -10 -99 -6 0 -10 41 -10 104 0 138 8 149 117 157 99 8 1527 10 1570 2z
m-6183 -52 c16 -18 16 -20 0 -40 l-18 -21 -23 22 c-22 20 -22 22 -5 39 22 23
25 23 46 0z m3011 9 c201 0 203 0 198 -21 -4 -14 -8 -17 -13 -8 -6 9 -49 10
-176 6 -93 -4 -181 -8 -196 -11 -21 -3 -29 0 -30 12 -1 10 -5 -41 -8 -113 l-6
-130 -2 139 c-2 122 0 137 14 132 9 -3 107 -6 219 -6z m-1965 -10 c0 -7 -77
-10 -225 -10 -132 1 -225 5 -225 11 0 5 92 9 225 9 147 0 225 -4 225 -10z
m498 -62 l-2 -73 -3 63 -4 62 -214 0 c-165 0 -215 -3 -215 -12 0 -14 -20 11
-20 25 0 4 104 7 230 7 l230 0 -2 -72z m85 35 c-17 -42 -13 -165 7 -202 10
-19 8 -21 -20 -21 l-30 0 0 130 0 130 29 0 30 0 -16 -37z m1106 -92 l0 -129
-35 -4 c-27 -3 -33 -1 -29 10 28 73 31 200 6 225 -19 19 -12 27 23 27 l34 0 1
-129z m981 120 c0 -6 -92 -10 -230 -10 -136 0 -230 4 -230 10 0 5 94 9 230 9
138 0 230 -4 230 -9z m-2000 -16 c0 -3 -7 -22 -16 -43 -9 -20 -20 -50 -24 -67
-7 -27 -8 -25 -9 17 -1 56 13 98 34 98 8 0 15 -2 15 -5z m914 -29 c17 -36 20
-73 9 -102 -5 -13 -10 -2 -19 37 -6 29 -15 64 -19 77 -11 35 11 26 29 -12z
m3380 16 c2 -4 -11 -6 -30 -4 -19 2 -34 6 -34 8 0 8 59 4 64 -4z m144 1 c-10
-2 -26 -2 -35 0 -10 3 -2 5 17 5 19 0 27 -2 18 -5z m-1113 -30 c6 -26 8 -26
19 -10 7 9 21 17 30 17 13 0 16 -10 16 -47 0 -51 -12 -79 -28 -69 -5 3 -15 -1
-22 -9 -25 -30 -50 -18 -74 38 -38 85 -40 97 -18 97 13 0 22 -11 31 -40 17
-56 27 -56 23 1 -4 53 11 67 23 22z m-6455 6 c0 -12 -407 -12 -415 1 -3 5 74
9 205 9 124 0 210 -4 210 -10z m427 5 c-3 -3 -12 -4 -19 -1 -8 3 -5 6 6 6 11
1 17 -2 13 -5z m83 -4 c0 -5 -2 -10 -4 -10 -3 0 -8 5 -11 10 -3 6 -1 10 4 10
6 0 11 -4 11 -10z m6140 -8 c0 -19 18 -42 32 -42 4 0 8 13 8 29 0 25 3 28 25
23 24 -4 25 -8 25 -68 0 -74 -10 -80 -61 -37 -30 26 -31 26 -20 4 12 -21 11
-22 -16 -19 -24 3 -29 8 -33 43 -8 58 -1 85 21 85 12 0 19 -7 19 -18z m-62
-60 c3 -56 1 -62 -17 -62 -16 0 -20 8 -23 58 -5 66 -2 74 20 70 13 -3 18 -17
20 -66z m222 57 c0 6 38 9 93 8 l92 -2 3 -62 3 -63 -46 0 -45 0 0 55 c0 44 -3
55 -16 55 -14 0 -16 -8 -11 -55 6 -63 -2 -69 -45 -28 -36 34 -36 53 -1 53 25
0 26 2 12 15 -9 10 -23 13 -33 9 -16 -6 -17 -15 -13 -56 6 -47 5 -49 -16 -42
-30 9 -37 22 -37 71 0 44 13 57 43 41 10 -5 17 -5 17 1z m304 -2 c16 -11 18
-22 12 -60 -4 -26 -9 -47 -11 -47 -2 0 -10 -3 -19 -6 -12 -4 -16 0 -16 15 0
13 -6 21 -16 21 -11 0 -15 -6 -11 -20 4 -15 0 -20 -14 -20 -17 0 -19 8 -19 65
l0 65 38 0 c21 0 46 -6 56 -13z m-2737 -24 c-4 -3 -1 -13 6 -21 9 -13 9 -14 0
-8 -10 5 -13 -6 -13 -46 0 -29 -4 -48 -8 -41 -11 17 -2 123 11 123 5 0 7 -3 4
-7z m3070 -10 c-5 -31 -18 -43 -45 -42 -24 2 -25 2 -4 6 13 3 28 15 34 29 13
28 19 31 15 7z m-3010 -20 c-3 -23 -16 -43 -27 -43 -5 0 -1 13 8 30 20 35 23
37 19 13z m-120 -30 c-3 -10 -5 -4 -5 12 0 17 2 24 5 18 2 -7 2 -21 0 -30z
m3230 11 c-3 -3 -12 -4 -19 -1 -8 3 -5 6 6 6 11 1 17 -2 13 -5z m-5647 -8 c0
-26 -16 -36 -61 -36 -42 0 -49 3 -49 20 0 18 7 20 55 20 30 0 55 -2 55 -4z
m433 -18 c18 -9 19 -17 12 -101 -4 -51 -13 -103 -20 -118 -17 -31 -59 -50
-100 -45 -16 2 -45 4 -62 5 -26 1 -33 5 -33 21 0 18 5 19 65 13 63 -6 65 -5
75 21 5 15 7 38 4 51 -6 22 -10 24 -53 19 -25 -3 -52 -7 -58 -10 -36 -11 -75
42 -66 89 3 15 19 39 36 53 30 25 35 26 106 20 41 -4 83 -12 94 -18z m2651 12
c40 -15 31 -29 -11 -19 -74 17 -100 12 -112 -21 -9 -27 -20 -35 -43 -31 -4 0
-12 -8 -18 -19 -8 -15 -7 -27 5 -49 18 -35 19 -45 5 -36 -6 4 -19 24 -30 46
-18 35 -19 42 -7 71 16 37 33 54 62 61 36 9 123 7 149 -3z m-5151 -17 c-40 -2
-107 -2 -150 0 -43 1 -10 3 72 3 83 0 118 -2 78 -3z m167 -3 c0 -5 -2 -10 -4
-10 -3 0 -8 5 -11 10 -3 6 -1 10 4 10 6 0 11 -4 11 -10z m510 0 c0 -5 -4 -10
-10 -10 -5 0 -10 5 -10 10 0 6 5 10 10 10 6 0 10 -4 10 -10z m615 -25 l0 -35
-72 0 -73 0 0 35 0 35 73 0 72 0 0 -35z m-618 -17 c-3 -8 -6 -5 -6 6 -1 11 2
17 5 13 3 -3 4 -12 1 -19z m2021 -27 c3 -8 -1 -12 -9 -9 -7 2 -15 10 -17 17
-3 8 1 12 9 9 7 -2 15 -10 17 -17z m272 9 c-14 -4 -38 -8 -55 -8 -29 1 -29 1
5 8 50 11 83 11 50 0z m1456 -18 c-16 -2 -32 0 -37 5 -5 5 7 7 29 4 34 -5 35
-6 8 -9z m743 -18 c28 -35 26 -66 -5 -114 -26 -39 -36 -44 -94 -42 -96 4 -98
5 -103 23 -6 22 -6 22 50 9 27 -6 51 -6 68 0 22 8 25 15 25 54 0 36 -4 48 -21
57 -18 9 -24 8 -32 -7 -10 -17 -11 -17 -17 1 -9 25 21 43 72 44 28 1 41 -5 57
-25z m939 -1 c-15 -4 -18 -21 -21 -126 l-3 -122 -2 128 c-2 126 -2 127 21 126
16 -1 17 -3 5 -6z m105 0 c-13 -2 -35 -2 -50 0 -16 2 -5 4 22 4 28 0 40 -2 28
-4z m264 1 c-3 -3 -12 -4 -19 -1 -8 3 -5 6 6 6 11 1 17 -2 13 -5z m1370 0 c-3
-3 -12 -4 -19 -1 -8 3 -5 6 6 6 11 1 17 -2 13 -5z m-454 -11 c-7 -2 -21 -2
-30 0 -10 3 -4 5 12 5 17 0 24 -2 18 -5z m-1838 -22 c-4 -7 -41 -10 -93 -9
l-87 1 82 6 c45 4 85 10 89 14 10 10 17 1 9 -12z m-5390 -1 c12 -5 -67 -9
-197 -9 -139 -1 -218 3 -218 9 0 12 386 12 415 0z m188 3 c-7 -2 -19 -2 -25 0
-7 3 -2 5 12 5 14 0 19 -2 13 -5z m337 -3 c0 -6 -41 -9 -107 -8 l-108 2 100 6
c55 3 103 7 108 8 4 1 7 -2 7 -8z m606 -26 l-1 -34 -67 0 c-66 0 -68 1 -68 25
l0 25 -147 2 c-82 0 -160 0 -175 -1 -16 -1 -28 1 -28 6 0 4 109 8 243 9 l243
1 0 -33z m811 29 c-7 -7 -159 -4 -166 3 -2 2 35 4 84 4 49 0 85 -3 82 -7z
m1023 -123 l0 -130 -147 0 c-82 0 -185 3 -230 7 l-83 6 0 123 0 124 230 0 230
0 0 -130z m136 109 c10 -12 30 -26 44 -31 l24 -9 -29 -23 c-17 -14 -25 -27
-21 -35 6 -9 11 -9 21 -1 11 9 15 2 20 -34 4 -26 11 -49 16 -52 13 -8 22 42
17 97 -3 27 -4 49 -2 49 2 0 10 -15 19 -34 9 -19 32 -52 51 -74 21 -25 34 -51
34 -68 l0 -27 -67 6 c-38 4 -103 7 -145 7 l-78 0 0 125 0 125 38 0 c27 0 45
-7 58 -21z m1052 -111 l3 -128 -151 0 -150 0 0 28 c0 19 12 40 40 67 40 39 40
39 40 13 0 -48 45 -72 91 -48 20 11 23 36 13 89 -6 29 -10 31 -48 31 l-41 1
40 21 c22 11 48 29 58 40 14 14 30 18 60 16 l42 -3 3 -127z m472 7 c0 -122 0
-125 -22 -127 -13 -1 -110 -2 -215 -2 l-193 -1 -1 105 c0 58 -2 115 -5 128
l-4 22 220 0 220 0 0 -125z m-2495 85 c3 -5 1 -10 -4 -10 -6 0 -11 5 -11 10 0
6 2 10 4 10 3 0 8 -4 11 -10z m125 -10 c0 -5 -19 -9 -42 -9 l-43 2 35 7 c19 4
38 8 43 9 4 0 7 -3 7 -9z m2665 0 c-3 -5 -23 -10 -43 -9 -30 0 -33 2 -17 9 28
12 67 12 60 0z m2353 -57 c-1 -47 -2 -47 -5 -8 l-4 40 -317 -8 c-174 -4 -423
-6 -553 -5 l-236 3 -7 -168 c-5 -124 -4 -172 5 -183 16 -19 29 -18 29 5 0 17
20 18 525 17 439 0 525 -3 520 -14 -3 -8 -5 -21 -6 -30 0 -14 -2 -13 -9 3 -8
18 -9 18 -9 2 -1 -10 -6 -15 -11 -12 -6 4 -7 11 -4 17 5 7 -19 9 -77 4 -129
-10 -172 -10 -199 -2 -24 8 -25 8 -5 -9 19 -16 19 -16 -10 -10 -16 3 -34 5
-40 4 -5 -1 -171 -4 -367 -6 l-358 -3 0 198 c0 109 3 202 7 205 3 4 260 7 570
7 l563 0 -2 -47z m202 30 c0 -5 -20 -8 -45 -8 -25 0 -45 3 -45 8 0 4 20 7 45
7 25 0 45 -3 45 -7z m-5127 -18 c-3 -9 -8 -14 -10 -11 -3 3 -2 9 2 15 9 16 15
13 8 -4z m-463 -15 c0 -5 -3 -10 -7 -10 -5 -1 -25 -3 -45 -6 -30 -5 -38 -2
-38 10 0 12 11 16 45 16 25 0 45 -4 45 -10z m3479 6 c-8 -8 -78 -10 -85 -3 -4
4 14 7 41 7 27 0 46 -2 44 -4z m-1344 -16 c-3 -5 -13 -10 -21 -10 -8 0 -14 5
-14 10 0 6 9 10 21 10 11 0 17 -4 14 -10z m-3327 -17 c-10 -2 -26 -2 -35 0
-10 3 -2 5 17 5 19 0 27 -2 18 -5z m3332 -35 c0 -4 -11 -8 -25 -8 -18 0 -25 5
-25 20 0 17 3 18 25 8 14 -6 25 -15 25 -20z m1340 22 c0 -5 -7 -10 -16 -10 -8
0 -12 5 -9 10 3 6 10 10 16 10 5 0 9 -4 9 -10z m2120 -59 c0 -32 -3 -79 -6
-104 -6 -42 -8 -45 -27 -36 -13 8 -26 8 -42 1 -21 -10 -23 -8 -29 35 -3 25 -6
72 -6 104 l0 59 55 0 55 0 0 -59z m-1303 2 c-3 -10 -5 -2 -5 17 0 19 2 27 5
18 2 -10 2 -26 0 -35z m423 -57 c0 -50 3 -101 6 -113 5 -19 2 -23 -15 -23 -19
0 -21 6 -23 78 0 42 -2 91 -4 107 -4 41 2 56 21 49 12 -5 15 -25 15 -98z m282
-12 c2 -64 0 -118 -4 -121 -5 -2 -8 1 -8 6 0 6 -12 11 -27 11 l-27 0 23 21
c20 19 22 30 21 103 -2 97 -2 96 9 96 6 0 11 -52 13 -116z m-564 56 c5 -62 -6
-110 -23 -110 -12 0 -15 17 -15 81 0 71 2 80 18 77 12 -2 18 -15 20 -48z m151
34 c3 -3 5 -36 5 -74 1 -55 -2 -69 -12 -65 -8 3 -31 5 -53 5 -32 0 -39 3 -39
20 0 15 7 20 25 20 28 0 49 37 39 65 -9 22 -31 19 -37 -5 -8 -30 -27 -24 -27
9 0 20 6 31 18 34 17 5 73 -2 81 -9z m313 -6 c4 -7 8 -37 8 -66 0 -48 -2 -53
-27 -63 -15 -5 -41 -9 -57 -7 l-31 3 1 68 c1 47 5 72 15 78 18 13 80 3 91 -13z
m250 10 c18 -14 21 -30 19 -95 -1 -42 -2 -43 -37 -43 -34 0 -35 1 -32 32 2 24
9 34 23 36 11 2 24 8 29 13 13 11 -12 39 -35 39 -27 0 -24 -18 4 -22 20 -3 20
-4 -5 -9 -25 -6 -28 -3 -28 22 0 37 31 50 62 27z m136 -10 c7 -7 12 -38 12
-70 l0 -58 -50 0 -50 0 0 40 c0 36 3 40 25 40 14 0 28 0 33 0 4 0 7 -8 7 -17
0 -13 -7 -17 -24 -15 -27 4 -25 -21 2 -26 22 -4 40 33 32 69 -7 32 -34 39 -55
14 -18 -22 -30 -18 -30 10 0 23 4 25 43 25 24 0 48 -5 55 -12z m-1798 -63 c0
-17 -6 -25 -17 -25 -17 -1 -17 -1 0 -11 9 -5 17 -19 17 -29 0 -16 -6 -20 -32
-18 -18 1 -45 -2 -60 -6 l-28 -8 0 61 0 61 60 0 c57 0 60 -1 60 -25z m-4452
-10 c83 -16 146 -38 156 -54 3 -5 -15 -2 -42 6 -62 20 -239 23 -251 5 -6 -10
-10 -8 -14 8 -14 54 15 61 151 35z m907 -5 l-20 -9 20 -2 c11 -1 28 -2 38 -1
9 1 17 -3 17 -8 0 -6 -18 -10 -40 -10 -33 0 -40 3 -40 20 0 14 6 20 23 19 21
0 21 -1 2 -9z m1522 -62 c-2 -13 -4 -3 -4 22 0 25 2 35 4 23 2 -13 2 -33 0
-45z m-887 -93 l0 -135 -202 0 c-112 0 -213 -3 -224 -6 -19 -5 -22 -1 -25 33
-2 21 -2 84 -1 141 l4 102 224 0 224 0 0 -135z m505 76 l1 -54 -53 -23 c-65
-29 -67 -29 -60 -2 3 12 2 30 -4 40 -12 21 -39 24 -39 4 0 -8 -10 -18 -22 -22
l-23 -7 22 -10 c41 -18 34 -35 -33 -74 -127 -74 -126 -74 -189 -71 l-60 3 -3
138 -3 137 233 -2 233 -3 0 -54z m279 53 c35 -5 46 -11 46 -25 0 -13 -10 -20
-37 -24 -110 -17 -220 -39 -235 -47 -16 -8 -18 -3 -18 47 l0 55 99 0 c54 0
119 -3 145 -6z m904 -52 c3 -49 1 -52 -15 -44 -21 11 -65 19 -188 36 -87 11
-90 12 -93 39 l-3 28 148 -3 148 -3 3 -53z m482 -77 l0 -135 -37 -2 c-76 -4
-107 1 -132 21 -14 12 -42 28 -61 36 -54 25 -70 44 -70 86 0 43 -14 57 -36 38
-10 -8 -14 -22 -10 -40 l5 -27 -48 21 c-47 19 -49 21 -54 70 -4 27 -4 54 -1
58 3 5 104 9 225 9 l219 0 0 -135z m500 0 l0 -135 -212 -1 c-117 0 -221 -2
-230 -4 -16 -3 -18 6 -18 83 0 48 -3 111 -6 140 l-7 52 237 0 236 0 0 -135z
m-5429 95 c15 -8 19 -21 18 -58 0 -26 -3 -41 -6 -34 -3 7 -23 12 -49 12 -28 0
-44 -4 -44 -12 0 -9 -4 -8 -10 2 -37 57 29 122 91 90z m177 4 c19 -6 22 -13
22 -58 0 -34 -3 -46 -9 -37 -5 8 -27 16 -49 18 -32 3 -41 0 -45 -14 -3 -10 -5
3 -6 29 -1 61 24 79 87 62z m180 -3 c18 -2 34 -50 25 -77 -8 -22 -9 -22 -52
-7 -36 12 -45 12 -52 1 -6 -8 -9 2 -9 28 0 48 13 64 49 59 14 -1 32 -3 39 -4z
m6119 -58 c-3 -10 -5 -4 -5 12 0 17 2 24 5 18 2 -7 2 -21 0 -30z m-2800 -29
c2 -7 -34 -13 -109 -17 -186 -9 -402 -85 -555 -194 -142 -100 -221 -230 -351
-574 -22 -57 -54 -134 -71 -171 -17 -38 -34 -86 -37 -108 -7 -41 -20 -52 -31
-25 -6 17 22 95 133 372 126 312 196 435 295 513 162 128 434 221 633 217 55
-1 91 -6 93 -13z m600 5 c300 -41 529 -177 650 -384 62 -106 293 -657 293
-697 0 -35 -18 -26 -33 15 -48 137 -198 492 -257 607 -113 221 -289 344 -596
415 -49 11 -242 35 -287 35 -5 0 -5 5 -2 10 8 13 133 13 232 -1z m-2087 -69
c0 -33 -16 -38 -53 -18 l-22 12 25 7 c25 7 25 7 -4 8 -24 1 -27 -2 -23 -19 3
-13 0 -20 -9 -20 -9 0 -14 11 -14 30 0 29 1 30 50 30 49 0 50 -1 50 -30z
m3470 0 c0 -29 -2 -30 -45 -30 -43 0 -45 1 -45 30 0 29 2 30 45 30 43 0 45 -1
45 -30z m-3798 -215 c3 -131 2 -193 -3 -145 -7 88 -12 387 -5 379 2 -2 5 -107
8 -234z m5526 228 c-16 -2 -40 -2 -55 0 -16 2 -3 4 27 4 30 0 43 -2 28 -4z
m-1343 -107 c-17 -25 -19 -26 -36 -10 -23 21 -24 32 -2 56 16 18 17 18 36 0
18 -19 18 -21 2 -46z m-4553 23 c21 -7 46 -21 55 -31 15 -17 15 -20 1 -34 -19
-19 -152 -43 -243 -44 -150 0 -312 33 -303 62 6 20 70 48 134 58 77 12 308 5
356 -11z m-1344 -37 c143 2 258 0 255 -4 -2 -5 -120 -8 -262 -8 -255 0 -258 0
-277 23 l-19 22 21 -18 c20 -16 43 -18 282 -15z m5638 -111 l-26 -26 -407 0
c-334 0 -407 2 -411 14 -4 11 62 13 403 10 l407 -4 24 28 c13 15 25 36 25 45
1 9 4 4 6 -12 4 -21 -2 -36 -21 -55z m1434 69 c0 -6 -113 -10 -317 -10 -175 0
-328 -3 -341 -6 -18 -5 -21 -3 -16 10 5 14 41 16 340 16 216 0 334 -4 334 -10z
m-4821 -72 c377 2 447 -2 394 -22 -9 -4 -190 -7 -402 -6 -282 0 -391 4 -409
13 -14 6 -32 28 -39 47 l-14 35 30 -35 30 -35 410 3z m-829 -200 c0 -117 -3
-258 -7 -313 l-8 -100 -6 65 c-4 36 -7 124 -8 196 l-1 130 -132 -1 c-73 -1
-190 -2 -260 -3 l-128 -2 -1 -127 c-1 -71 -5 -162 -9 -203 -4 -51 -7 7 -8 181
-1 141 -5 284 -8 318 -6 52 -5 61 10 61 14 0 16 -14 16 -100 0 -97 1 -100 23
-100 445 -7 496 -6 500 9 2 9 1 51 -1 93 -5 79 0 108 18 108 6 0 10 -73 10
-212z m5485 183 c-38 -3 -90 -3 -115 0 -28 4 -1 6 70 6 98 0 105 -1 45 -6z
m-435 -31 c0 -5 -4 -10 -9 -10 -6 0 -13 5 -16 10 -3 6 1 10 9 10 9 0 16 -4 16
-10z m184 -12 c47 -23 60 -43 70 -113 3 -22 10 -41 16 -43 12 -4 14 -311 1
-331 -5 -8 -10 49 -12 146 -4 159 -4 160 -34 199 -33 44 -64 71 -107 96 -28
16 -32 15 -84 -8 -69 -30 -92 -30 -161 2 -49 24 -59 25 -94 15 -46 -14 -86
-46 -124 -101 -28 -40 -28 -42 -28 -189 1 -90 6 -157 12 -170 16 -29 -4 -28
-23 2 -23 34 -24 311 -2 336 10 11 16 35 16 63 0 39 5 50 31 72 40 34 68 40
115 27 22 -6 50 -11 63 -11 14 0 42 -12 63 -27 35 -24 42 -25 76 -15 20 7 64
25 97 41 33 16 61 30 62 30 1 1 23 -9 47 -21z m1038 -41 c-20 -19 -35 -22
-131 -25 -117 -4 -185 8 -195 35 -6 14 -3 14 15 -3 19 -17 36 -19 150 -19 119
0 130 2 151 22 12 12 24 20 27 17 3 -2 -5 -15 -17 -27z m-902 3 c0 -5 -4 -10
-10 -10 -5 0 -10 5 -10 10 0 6 5 10 10 10 6 0 10 -4 10 -10z m270 -2 c0 -5
-24 -8 -52 -7 -36 0 -47 3 -33 8 24 10 85 9 85 -1z m-2755 -79 c153 -28 279
-148 320 -304 13 -50 15 -144 15 -587 0 -340 -4 -529 -10 -533 -7 -4 -10 171
-10 517 0 559 -2 584 -51 680 -51 99 -156 175 -276 197 -28 6 -296 9 -619 8
l-569 -2 -65 -31 c-82 -39 -151 -108 -193 -193 l-32 -66 -7 -558 c-3 -307 -9
-561 -11 -564 -13 -12 -18 243 -15 662 3 427 4 463 22 505 61 141 168 238 296
266 73 16 1120 19 1205 3z m-2399 -104 c18 -18 67 -20 96 -4 27 14 36 2 12
-16 -24 -18 -102 -19 -134 0 -20 11 -21 14 -7 15 10 0 15 5 12 10 -9 15 4 12
21 -5z m3638 4 c-12 -21 -73 -40 -92 -30 -14 9 -12 11 13 11 17 0 41 7 55 15
31 18 33 18 24 4z m-4754 -24 c0 -13 -28 -15 -168 -15 -111 0 -172 4 -179 11
-9 9 -20 5 -44 -12 -18 -12 -29 -18 -25 -11 5 9 -9 12 -53 12 -52 0 -62 -3
-80 -26 -11 -15 -47 -56 -79 -93 -32 -36 -90 -102 -129 -146 -38 -44 -102
-114 -141 -155 -39 -41 -72 -81 -72 -87 0 -7 -9 -13 -21 -13 -11 0 -19 4 -17
9 2 6 64 78 138 163 74 84 161 184 194 223 32 38 76 89 97 112 l39 42 87 3
c49 2 170 2 271 0 151 -2 182 -5 182 -17z m369 -14 c17 -32 26 -39 61 -45 48
-8 50 -17 9 -47 -28 -20 -31 -26 -26 -61 4 -31 3 -37 -8 -28 -16 13 -59 15
-104 5 -31 -7 -33 -7 -26 14 7 24 -12 84 -25 76 -4 -2 -15 4 -25 15 -18 20
-17 20 15 20 25 0 40 9 66 37 19 20 34 41 34 45 0 17 10 6 29 -31z m5147 29
c70 0 74 -1 74 -22 0 -17 -3 -19 -12 -10 -15 15 -208 17 -208 2 0 -5 -7 -10
-15 -10 -8 0 -15 9 -15 19 0 22 28 31 74 25 16 -2 62 -4 102 -4z m-4633 -14
c4 -11 -13 -14 -86 -15 -59 -1 -94 -6 -99 -14 -6 -9 -8 -9 -8 0 0 6 -3 18 -6
27 -5 14 7 16 94 16 76 0 101 -3 105 -14z m837 7 c-1 -14 -30 -47 -30 -35 0 9
-37 12 -134 12 l-135 0 -4 -37 c-3 -31 -4 -29 -5 15 l-2 52 155 0 c85 0 155
-3 155 -7z m2742 0 c2 -5 1 -30 -3 -58 l-6 -50 -1 43 -2 42 -145 0 c-133 0
-144 -1 -139 -17 5 -15 4 -16 -5 -3 -40 52 -45 50 133 50 91 0 166 -3 168 -7z
m758 -8 c0 -12 -20 -15 -120 -15 -100 0 -120 3 -120 15 0 13 20 15 120 15 100
0 120 -2 120 -15z m1307 7 c10 -3 241 -256 476 -519 20 -23 20 -23 1 -23 -13
0 -87 77 -221 228 -110 125 -212 240 -225 256 l-24 28 -252 6 c-212 4 -252 3
-252 -9 0 -11 -2 -11 -10 1 -17 26 -12 29 58 33 91 5 434 5 449 -1z m-697 -38
c0 -8 -9 -14 -20 -14 -18 0 -19 3 -10 20 12 22 30 18 30 -6z m-392 9 c-10 -2
-28 -2 -40 0 -13 2 -5 4 17 4 22 1 32 -1 23 -4z m-5858 -27 c0 -2 -8 -10 -17
-17 -16 -13 -17 -12 -4 4 13 16 21 21 21 13z m5366 -34 c-17 -16 -18 -16 -5 5
7 12 15 20 18 17 3 -2 -3 -12 -13 -22z m625 3 c16 5 19 1 18 -27 0 -27 -2 -29
-9 -13 -7 18 -8 19 -15 3 -13 -32 -25 -19 -24 25 1 23 3 34 6 24 3 -12 10 -16
24 -12z m-5921 -10 c11 -13 10 -15 -1 -10 -9 3 -25 -12 -42 -38 -57 -87 -97
-139 -97 -126 0 20 43 93 86 144 20 25 38 45 39 45 1 0 8 -7 15 -15z m6040
-15 c0 -16 -7 -20 -30 -20 -18 0 -30 5 -30 13 0 20 10 27 37 27 16 0 23 -6 23
-20z m337 -22 c-3 -7 -5 -2 -5 12 0 14 2 19 5 13 2 -7 2 -19 0 -25z m-6497 8
c0 -2 -8 -10 -17 -17 -16 -13 -17 -12 -4 4 13 16 21 21 21 13z m5364 -11 c-4
-8 -11 -12 -16 -9 -6 4 -5 10 3 15 19 12 19 11 13 -6z m-3894 -5 c0 -5 -2 -10
-4 -10 -3 0 -8 5 -11 10 -3 6 -1 10 4 10 6 0 11 -4 11 -10z m5039 -84 c1 -54
-5 -42 -12 24 -4 36 -3 48 3 35 5 -11 9 -38 9 -59z m426 29 c29 -13 -14 -15
-350 -15 -15 0 -3 16 17 22 46 12 302 8 333 -7z m-5115 -59 c0 -19 -5 -38 -11
-41 -5 -4 -57 -6 -113 -6 -93 1 -104 -1 -102 -16 0 -9 -7 -19 -17 -21 -17 -3
-17 -1 -7 20 12 22 11 22 -5 6 -10 -9 -15 -20 -12 -26 11 -17 197 -33 235 -20
16 6 22 4 22 -7 0 -12 -18 -15 -98 -15 -55 0 -154 -3 -220 -7 -84 -4 -122 -3
-122 5 0 6 25 44 57 86 l56 76 169 0 168 0 0 -34z m3573 -51 l57 -84 -199 2
c-181 2 -195 3 -153 15 26 7 74 14 107 16 51 4 60 8 63 25 4 25 -25 30 -163
28 l-100 -2 2 -42 c1 -24 -3 -43 -8 -43 -5 0 -9 38 -9 85 l0 85 173 0 172 -1
58 -84z m-3308 66 c-6 -5 -41 -14 -78 -20 -108 -18 -115 -24 -120 -90 -2 -42
-4 -34 -5 32 l-2 87 107 0 c63 0 103 -4 98 -9z m2688 2 c-13 -2 -33 -2 -45 0
-13 2 -3 4 22 4 25 0 35 -2 23 -4z m155 -90 c-1 -76 -3 -84 -5 -35 l-4 64 -59
25 c-33 14 -57 30 -54 34 3 5 32 9 65 9 l59 0 -2 -97z m-4735 80 c-7 -2 -19
-2 -25 0 -7 3 -2 5 12 5 14 0 19 -2 13 -5z m6597 -62 c0 -14 -28 -33 -40 -26
-20 12 -10 35 15 35 14 0 25 -4 25 -9z m60 5 c0 -3 -4 -8 -10 -11 -5 -3 -10
-1 -10 4 0 6 5 11 10 11 6 0 10 -2 10 -4z m-6596 -110 c-3 -8 -13 -17 -22 -21
-13 -5 -13 -2 3 15 21 24 26 25 19 6z m6736 10 c0 -2 -8 -10 -17 -17 -16 -13
-17 -12 -4 4 13 16 21 21 21 13z m-5437 -196 c164 0 257 -4 257 -10 0 -7 -380
-10 -1120 -10 -889 0 -1120 3 -1120 13 0 9 178 12 863 10 474 -1 978 -2 1120
-3z m4653 0 c776 0 1174 -3 1174 -10 0 -7 -403 -10 -1190 -10 -1086 0 -1190 1
-1190 16 0 11 5 14 16 10 9 -3 544 -6 1190 -6z m-6699 -6 c-3 -3 -12 -4 -19
-1 -8 3 -5 6 6 6 11 1 17 -2 13 -5z m7976 -1 c-7 -2 -19 -2 -25 0 -7 3 -2 5
12 5 14 0 19 -2 13 -5z m-6698 -333 c0 -13 -26 -15 -175 -15 -159 0 -175 2
-178 18 -3 16 9 17 175 15 150 -3 178 -5 178 -18z m-455 -170 c-60 -122 -64
-146 -24 -138 12 2 21 16 27 43 4 22 25 76 46 120 l37 80 29 -45 c16 -25 38
-60 49 -77 24 -37 42 -42 51 -13 5 14 -7 37 -39 79 -25 33 -46 62 -46 66 0 11
283 1 287 -11 2 -6 -15 -34 -38 -63 -38 -47 -40 -54 -26 -68 21 -21 30 -13 75
63 l39 65 38 -78 c21 -43 43 -96 50 -118 10 -32 17 -41 39 -43 14 -2 26 2 26
7 0 6 -27 66 -61 132 -33 67 -58 123 -56 126 9 8 137 -236 137 -261 0 -7 -14
-19 -31 -26 -26 -11 -43 -10 -105 4 -40 10 -89 28 -108 41 -37 25 -46 20 -46
-26 0 -30 72 -59 147 -59 55 0 62 -2 56 -17 -4 -11 -8 -12 -11 -5 -2 7 -8 12
-13 12 -6 0 -8 -4 -5 -9 4 -5 -10 -5 -32 0 -20 5 -42 9 -49 9 -19 0 -64 -53
-58 -69 4 -11 1 -10 -13 2 -25 23 -31 22 -42 -8 -8 -21 -16 -25 -47 -25 -30 0
-40 5 -48 23 -16 35 -32 27 -73 -36 -21 -31 -42 -54 -47 -50 -4 5 -5 2 -1 -4
4 -7 3 -20 -2 -29 -7 -13 -21 7 -63 87 -30 57 -55 107 -57 110 -1 4 32 8 75
11 116 7 176 47 126 84 -15 11 -21 9 -40 -8 -14 -13 -49 -25 -99 -34 -65 -11
-81 -11 -110 1 -19 8 -34 17 -34 20 0 7 120 237 133 253 27 34 12 -7 -43 -118z
m2080 -39 c0 -5 -31 -16 -70 -25 -88 -19 -143 -54 -180 -113 -36 -56 -40 -37
-6 22 30 50 90 94 154 111 56 15 102 17 102 5z m2121 -16 c63 -32 139 -117
139 -156 0 -7 -13 7 -28 32 -45 71 -113 110 -209 124 -29 4 -53 12 -53 17 0
16 111 3 151 -17z m859 -15 c0 -12 -5 -12 -138 -10 l-104 2 4 -53 c2 -35 -1
-53 -9 -56 -10 -4 -13 13 -13 61 l0 66 130 0 c80 0 130 -4 130 -10z m693 -5
c1 -6 -43 -11 -114 -13 l-117 -3 2 -47 c2 -67 -18 -70 -22 -3 -5 84 -9 82 128
79 69 -2 121 -7 123 -13z m-4788 -85 c-3 -5 -19 -10 -35 -10 -16 0 -32 5 -35
10 -4 6 10 10 35 10 25 0 39 -4 35 -10z m115 -2 c0 -17 -76 -16 -92 0 -9 9 0
12 40 12 35 0 52 -4 52 -12z m120 -3 c0 -11 -11 -15 -40 -15 -29 0 -40 4 -40
15 0 11 11 15 40 15 29 0 40 -4 40 -15z m125 6 c-16 -15 -87 -18 -92 -3 -3 8
10 12 48 12 33 0 49 -4 44 -9z m115 -1 c0 -5 -6 -10 -12 -11 -7 0 -25 -3 -40
-5 -21 -3 -28 -1 -28 11 0 11 11 15 40 15 22 0 40 -4 40 -10z m155 0 c-3 -5
-33 -10 -66 -10 -33 0 -59 4 -59 10 0 6 29 10 66 10 41 0 63 -4 59 -10z m3360
-70 c164 -1 127 -17 -50 -21 -131 -4 -140 -3 -143 15 -4 17 0 18 34 13 22 -4
93 -7 159 -7z m628 -6 c34 -13 4 -24 -64 -24 -64 0 -69 2 -69 21 0 21 3 21 58
16 32 -4 66 -9 75 -13z m617 1 c0 -13 -24 -15 -157 -15 -87 0 -168 -3 -180 -6
-19 -5 -23 -2 -23 15 0 21 3 21 180 21 153 0 180 -2 180 -15z m-1110 -80 c0
-13 -33 -15 -234 -15 -213 0 -258 4 -239 24 3 3 111 6 240 6 200 0 233 -2 233
-15z m305 5 c3 -5 1 -18 -4 -27 -7 -12 -11 -13 -11 -5 0 10 -13 13 -42 11 -24
-1 -78 -2 -120 -1 -62 2 -78 5 -78 17 0 13 20 15 124 15 72 0 127 -4 131 -10z
m195 -6 c0 -13 -11 -15 -67 -13 -75 3 -86 6 -78 20 4 5 37 9 76 9 56 0 69 -3
69 -16z m290 1 c0 -12 -16 -15 -82 -15 -95 0 -158 9 -158 21 0 5 54 9 120 9
100 0 120 -2 120 -15z m348 -3 c3 -10 -27 -12 -144 -10 -109 2 -148 6 -152 16
-3 10 27 12 144 10 109 -2 148 -6 152 -16z m152 3 c0 -11 -12 -15 -50 -15 -38
0 -50 4 -50 15 0 11 12 15 50 15 38 0 50 -4 50 -15z m88 -2 c2 -8 -5 -13 -17
-13 -12 0 -21 6 -21 16 0 18 31 15 38 -3z m-5617 -152 c-12 -8 -51 -4 -51 5 0
2 15 4 33 4 22 0 28 -3 18 -9z m109 -7 c0 -13 -7 -15 -31 -10 -17 3 -39 6 -48
6 -14 0 -14 2 -1 10 26 17 80 12 80 -6z m660 6 c0 -6 -32 -10 -76 -10 -47 0
-73 4 -69 10 3 6 37 10 76 10 39 0 69 -4 69 -10z m4260 -6 c0 -8 -5 -12 -10
-9 -6 4 -8 11 -5 16 9 14 15 11 15 -7z m-4805 -4 c-3 -5 -21 -10 -40 -10 -19
0 -37 5 -40 10 -4 6 12 10 40 10 28 0 44 -4 40 -10z m125 0 c0 -5 -18 -10 -39
-10 -22 0 -43 5 -46 10 -4 6 12 10 39 10 25 0 46 -4 46 -10z m120 0 c0 -5 -18
-10 -39 -10 -22 0 -43 5 -46 10 -4 6 12 10 39 10 25 0 46 -4 46 -10z m120 0
c0 -5 -18 -10 -40 -10 -22 0 -40 5 -40 10 0 6 18 10 40 10 22 0 40 -4 40 -10z
m-1250 -45 c0 -12 -14 -13 -82 -8 -121 8 -130 22 -15 23 79 0 97 -3 97 -15z
m115 5 c12 -19 -4 -27 -41 -21 -53 9 -57 31 -5 31 22 0 43 -4 46 -10z m252 4
c-9 -10 -189 -25 -210 -18 -43 13 3 24 105 24 61 0 108 -3 105 -6z m1573 -4
c0 -6 -28 -10 -64 -10 -56 0 -67 -3 -80 -22 -18 -25 -22 -8 -6 23 9 16 22 19
80 19 40 0 70 -4 70 -10z m2028 -2 c7 -7 12 -21 11 -32 0 -20 -1 -20 -9 2 -9
20 -16 22 -85 22 -43 0 -75 4 -75 10 0 15 143 13 158 -2z m1696 -148 l26 -10
-2 -197 -2 -198 -6 185 c-4 102 -8 186 -9 188 0 2 -16 2 -33 0 l-33 -3 -8 -90
c-4 -49 -6 -134 -5 -188 2 -53 0 -97 -4 -97 -5 0 -8 92 -8 204 0 204 0 205 23
209 12 2 25 5 29 6 4 0 18 -3 32 -9z m-545 -50 c17 -21 31 -46 31 -54 0 -18
-44 -54 -76 -62 -25 -6 -70 14 -97 43 -16 19 -16 21 13 61 17 23 35 42 40 42
11 0 4 -42 -12 -74 -7 -12 -6 -22 1 -29 14 -14 45 58 37 88 -12 48 18 41 63
-15z m289 35 c3 -3 -29 -5 -72 -5 -47 0 -75 4 -71 10 6 9 133 5 143 -5z m122
5 c0 -5 -19 -10 -42 -9 -33 0 -38 2 -23 9 28 12 65 12 65 0z m519 -6 c2 -2
-67 -3 -155 -3 -95 1 -145 5 -124 9 34 7 271 2 279 -6z m126 6 c15 -6 8 -9
-27 -9 -27 -1 -48 4 -48 9 0 12 47 12 75 0z m-1487 -7 c-49 -2 -127 -2 -175 0
-49 1 -9 3 87 3 96 0 136 -2 88 -3z m1585 0 c-7 -2 -19 -2 -25 0 -7 3 -2 5 12
5 14 0 19 -2 13 -5z m-6483 -103 c0 -5 -11 -10 -24 -10 -14 0 -28 5 -31 10 -4
6 7 10 24 10 17 0 31 -4 31 -10z m90 -12 c0 -17 -3 -19 -12 -10 -7 7 -25 12
-41 12 -16 0 -26 4 -22 10 3 6 22 10 41 10 28 0 34 -4 34 -22z m374 16 c42
-16 -9 -24 -149 -24 -152 0 -185 4 -185 21 0 10 309 13 334 3z m166 -4 c0 -5
-25 -10 -55 -10 -30 0 -55 5 -55 10 0 6 25 10 55 10 30 0 55 -4 55 -10z m460
0 c0 -13 -50 -13 -70 0 -11 7 -4 10 28 10 23 0 42 -4 42 -10z m118 -1 c-2 -6
-7 -10 -11 -10 -4 1 -20 1 -37 1 -16 0 -30 5 -30 10 0 6 18 10 41 10 25 0 39
-4 37 -11z m120 -1 c-2 -6 -21 -11 -41 -10 -49 1 -49 1 -42 12 9 15 88 13 83
-2z m122 2 c0 -5 -18 -10 -40 -10 -22 0 -40 5 -40 10 0 6 18 10 40 10 22 0 40
-4 40 -10z m120 0 c-20 -13 -90 -13 -90 0 0 6 24 10 53 10 37 0 48 -3 37 -10z
m3465 -83 c44 -2 -27 -4 -158 -5 -131 -1 -236 1 -234 6 5 6 194 6 392 -1z
m1220 3 c4 -6 -47 -10 -144 -10 -94 0 -151 4 -151 10 0 6 55 10 144 10 86 0
147 -4 151 -10z m140 0 c-8 -13 -65 -13 -85 0 -11 7 0 10 38 10 33 0 51 -4 47
-10z m95 0 c0 -13 -11 -13 -30 0 -12 8 -11 10 8 10 12 0 22 -4 22 -10z m-1081
-82 c-1 -18 -3 -26 -5 -18 -4 12 -26 15 -121 15 -82 0 -117 4 -120 12 -3 9 19
13 79 16 46 1 102 4 126 5 41 2 42 2 41 -30z m-3729 -88 c0 -5 -10 -10 -22
-10 -13 0 -41 -2 -63 -5 l-40 -5 45 14 c55 17 80 19 80 6z m470 -10 c-8 -5
-64 -10 -125 -10 -60 0 -117 5 -125 10 -10 7 31 10 125 10 94 0 135 -3 125
-10z m-2210 -10 c22 -7 21 -8 -12 -9 -21 -1 -38 4 -38 9 0 11 14 11 50 0z
m120 -10 c0 -5 -15 -10 -34 -10 -19 0 -38 5 -41 10 -4 6 10 10 34 10 23 0 41
-4 41 -10z m120 0 c0 -5 -18 -10 -40 -10 -22 0 -40 5 -40 10 0 6 18 10 40 10
22 0 40 -4 40 -10z m299 6 c-11 -9 -259 -15 -259 -6 0 6 52 10 132 10 72 0
129 -2 127 -4z m407 -5 c-6 -9 -296 -4 -305 5 -2 2 66 4 153 4 92 0 155 -4
152 -9z m114 -1 c0 -5 -18 -10 -40 -10 -22 0 -40 5 -40 10 0 6 18 10 40 10 22
0 40 -4 40 -10z m130 0 c0 -5 -18 -10 -39 -10 -22 0 -43 5 -46 10 -4 6 12 10
39 10 25 0 46 -4 46 -10z m125 0 c-3 -5 -24 -10 -45 -10 -21 0 -42 5 -45 10
-4 6 13 10 45 10 32 0 49 -4 45 -10z m163 4 c-11 -10 -83 -13 -118 -5 -29 8
-22 9 44 10 44 1 77 -2 74 -5z m70 -1 c-10 -2 -28 -2 -40 0 -13 2 -5 4 17 4
22 1 32 -1 23 -4z m3472 -3 c0 -12 -308 -12 -316 1 -3 5 63 9 155 9 99 0 161
-4 161 -10z m147 3 c-8 -7 -77 -6 -85 2 -3 3 16 5 43 5 27 0 45 -3 42 -7z
m503 -3 c0 -12 -49 -12 -105 -1 -36 8 -33 9 33 10 42 1 72 -3 72 -9z m113 3
c-13 -2 -33 -2 -45 0 -13 2 -3 4 22 4 25 0 35 -2 23 -4z m455 0 c-43 -2 -113
-2 -155 0 -43 1 -8 3 77 3 85 0 120 -2 78 -3z m216 -3 c-6 -6 -26 -6 -54 -1
l-45 9 55 1 c35 1 51 -2 44 -9z m89 3 c-7 -2 -19 -2 -25 0 -7 3 -2 5 12 5 14
0 19 -2 13 -5z m-4485 -150 c-21 -2 -55 -2 -75 0 -21 2 -4 4 37 4 41 0 58 -2
38 -4z"/>
<path d="M6218 8593 c7 -3 16 -2 19 1 4 3 -2 6 -13 5 -11 0 -14 -3 -6 -6z"/>
<path d="M6297 8579 c3 -10 9 -16 14 -13 13 8 11 21 -5 27 -10 4 -12 0 -9 -14z"/>
<path d="M4324 8245 c-6 -26 5 -51 13 -27 3 6 9 9 15 6 6 -4 8 3 6 17 -4 32
-26 35 -34 4z"/>
<path d="M3276 8193 c5 -5 12 -12 16 -18 4 -6 8 -2 8 8 0 9 -7 17 -17 17 -9 0
-12 -3 -7 -7z"/>
<path d="M3314 8145 l1 -50 43 -3 c35 -3 42 0 42 15 0 10 4 24 9 32 6 9 9 5 9
-13 0 -16 -9 -33 -22 -42 -19 -14 -16 -14 44 -11 l65 3 -4 50 c-1 27 -5 51 -7
53 -8 8 -34 9 -29 2 2 -5 -7 -6 -21 -3 -19 3 -22 7 -12 13 10 7 9 9 -4 9 -12
0 -18 -8 -19 -22 -1 -16 -3 -18 -6 -6 -3 11 -17 17 -47 20 l-42 3 0 -50z"/>
<path d="M3146 8174 c-10 -25 -7 -59 6 -72 17 -17 78 -16 78 2 0 8 4 17 9 21
6 3 9 -6 8 -21 -2 -24 2 -27 36 -30 40 -5 44 1 22 30 -8 11 -15 28 -15 37 0
10 -8 25 -17 35 -17 17 -18 16 -24 -12 l-7 -29 -1 28 c-1 25 -4 27 -45 27 -31
0 -46 -5 -50 -16z"/>
<path d="M9085 8080 c-3 -5 -1 -10 4 -10 6 0 11 5 11 10 0 6 -2 10 -4 10 -3 0
-8 -4 -11 -10z"/>
<path d="M2164 7674 c-18 -14 -18 -15 4 -4 12 6 22 13 22 15 0 8 -5 6 -26 -11z"/>
<path d="M1708 7303 c6 -2 18 -2 25 0 6 3 1 5 -13 5 -14 0 -19 -2 -12 -5z"/>
<path d="M8175 7460 c-13 -6 -15 -9 -5 -9 8 0 22 4 30 9 18 12 2 12 -25 0z"/>
<path d="M8303 7473 c9 -2 23 -2 30 0 6 3 -1 5 -18 5 -16 0 -22 -2 -12 -5z"/>
<path d="M8443 7473 c9 -2 25 -2 35 0 9 3 1 5 -18 5 -19 0 -27 -2 -17 -5z"/>
<path d="M2348 7143 c7 -3 16 -2 19 1 4 3 -2 6 -13 5 -11 0 -14 -3 -6 -6z"/>
<path d="M5280 6150 c0 -5 5 -10 11 -10 5 0 7 5 4 10 -3 6 -8 10 -11 10 -2 0
-4 -4 -4 -10z"/>
<path d="M5350 6231 c0 -8 61 -22 69 -15 1 1 0 7 -4 13 -8 13 -65 15 -65 2z"/>
<path d="M5360 6165 c0 -9 9 -15 25 -15 16 0 25 6 25 15 0 9 -9 15 -25 15 -16
0 -25 -6 -25 -15z"/>
<path d="M5490 6220 c0 -5 11 -10 24 -10 14 0 28 5 31 10 4 6 -7 10 -24 10
-17 0 -31 -4 -31 -10z"/>
<path d="M3662 5903 l3 -48 35 3 c47 4 55 14 44 54 -8 29 -14 33 -47 36 l-38
3 3 -48z m56 -6 c2 -19 -1 -27 -12 -27 -11 0 -16 10 -16 31 0 38 24 35 28 -4z"/>
<path d="M3880 5925 c-21 -56 -2 -81 51 -68 17 5 20 12 17 47 -3 36 -6 41 -30
44 -22 3 -30 -2 -38 -23z m45 -5 c3 -5 -1 -10 -9 -10 -9 0 -16 5 -16 10 0 6 4
10 9 10 6 0 13 -4 16 -10z m0 -30 c3 -5 -1 -10 -9 -10 -9 0 -16 5 -16 10 0 6
4 10 9 10 6 0 13 -4 16 -10z"/>
<path d="M3984 5934 c3 -9 6 -31 6 -50 0 -25 4 -34 16 -34 14 0 15 7 10 40 -5
32 -3 40 9 40 8 0 15 5 15 10 0 6 -14 10 -31 10 -24 0 -30 -3 -25 -16z"/>
<path d="M3774 5905 c-8 -47 6 -63 43 -49 23 8 28 15 28 44 0 32 -3 35 -32 38
-30 3 -32 1 -39 -33z m52 -5 c0 -24 -20 -21 -24 3 -2 9 3 17 10 17 8 0 14 -9
14 -20z"/>
<path d="M4258 5953 c-25 -6 -23 -43 2 -43 11 0 20 5 20 10 0 6 5 10 11 10 16
0 0 -43 -22 -59 -26 -18 -24 -31 5 -31 45 0 56 10 56 49 0 20 -4 41 -8 47 -9
14 -42 23 -64 17z"/>
<path d="M4391 5918 c-35 -33 -40 -43 -29 -53 20 -19 98 -26 98 -10 0 8 -9 17
-20 20 -11 3 -20 11 -20 17 0 5 7 8 15 4 11 -4 15 2 15 24 0 16 -4 31 -8 34
-4 2 -27 -14 -51 -36z"/>
<path d="M4909 5919 c-35 -45 -32 -54 24 -64 37 -7 37 -7 37 26 0 42 -10 79
-20 79 -5 0 -23 -18 -41 -41z m29 -44 c-9 -9 -30 14 -23 25 6 9 10 8 17 -4 6
-10 8 -19 6 -21z"/>
<path d="M4756 5934 c-11 -28 -6 -72 8 -77 20 -8 22 -4 18 47 -4 47 -15 59
-26 30z"/>
<path d="M5555 5925 c-42 -42 -45 -59 -10 -52 18 3 29 -1 36 -14 18 -34 26
-20 25 41 0 33 -4 60 -8 60 -4 0 -23 -16 -43 -35z"/>
<path d="M5411 5937 c-17 -21 -3 -47 26 -47 30 0 26 -24 -5 -28 -35 -5 -25
-22 13 -22 42 0 52 17 39 69 -7 28 -14 37 -35 39 -14 2 -31 -3 -38 -11z m44
-17 c3 -5 -3 -10 -15 -10 -12 0 -18 5 -15 10 3 6 10 10 15 10 5 0 12 -4 15
-10z"/>
<path d="M5890 5936 c0 -30 13 -46 36 -46 13 0 24 -5 24 -11 0 -7 -11 -8 -30
-4 -26 6 -30 4 -30 -14 0 -17 6 -21 35 -21 44 0 58 23 44 74 -9 33 -13 36 -44
36 -24 0 -35 -5 -35 -14z m57 -12 c-3 -3 -12 -4 -19 -1 -8 3 -5 6 6 6 11 1 17
-2 13 -5z"/>
<path d="M6016 5938 c-3 -7 -7 -31 -10 -53 l-6 -41 36 4 c20 2 38 10 41 17 7
20 -15 55 -35 56 -13 0 -11 3 6 9 29 12 28 20 -3 20 -14 0 -27 -6 -29 -12z
m29 -58 c3 -5 1 -10 -4 -10 -6 0 -11 5 -11 10 0 6 2 10 4 10 3 0 8 -4 11 -10z"/>
<path d="M6384 5928 c3 -13 6 -26 6 -30 0 -5 14 -8 31 -8 17 0 28 -4 24 -10
-3 -5 -19 -7 -35 -3 -23 4 -30 2 -30 -11 0 -12 10 -16 39 -16 23 0 41 5 44 13
5 16 -22 57 -39 57 -8 0 -14 5 -14 10 0 7 6 7 20 0 16 -9 20 -8 20 5 0 11 -10
15 -36 15 -33 0 -36 -2 -30 -22z"/>
<path d="M6503 5906 c-24 -48 -22 -57 8 -49 14 4 18 11 14 24 -4 11 -2 19 4
19 5 0 11 -10 13 -22 2 -13 11 -24 22 -26 16 -3 17 1 11 40 -9 53 -12 58 -34
58 -10 0 -25 -17 -38 -44z"/>
<path d="M6623 5943 c-18 -2 -33 -8 -33 -13 0 -5 7 -7 15 -4 10 4 16 -3 20
-23 11 -48 12 -49 20 -10 4 20 11 37 16 37 5 0 9 5 9 10 0 6 -3 9 -7 8 -5 0
-23 -3 -40 -5z"/>
<path d="M6900 5410 c0 -5 12 -10 28 -9 24 0 25 1 7 9 -27 12 -35 12 -35 0z"/>
<path d="M6920 5340 c0 -5 4 -10 9 -10 6 0 13 5 16 10 3 6 -1 10 -9 10 -9 0
-16 -4 -16 -10z"/>
<path d="M3879 5684 c-21 -23 -22 -26 -7 -35 9 -5 19 -27 23 -49 11 -65 25
-46 25 35 0 41 -4 75 -8 75 -5 0 -19 -12 -33 -26z"/>
<path d="M3715 5690 c3 -5 15 -10 26 -10 25 0 25 -27 -1 -35 -24 -8 -17 -25
10 -25 24 0 36 -18 21 -33 -9 -9 -17 -8 -32 1 -25 16 -37 8 -19 -13 15 -18 61
-20 78 -3 14 14 16 67 2 102 -8 22 -16 26 -50 26 -25 0 -39 -4 -35 -10z"/>
<path d="M4284 5695 c-21 -14 -54 -72 -54 -94 0 -6 16 -11 35 -11 24 0 38 -5
42 -17 11 -29 23 33 16 88 -6 54 -9 56 -39 34z m9 -40 c-3 -13 -9 -23 -13 -20
-4 2 -5 16 -3 30 3 13 9 23 13 20 4 -2 5 -16 3 -30z"/>
<path d="M4388 5655 c-21 -23 -38 -45 -38 -49 0 -3 16 -6 35 -6 24 0 37 -6 45
-20 6 -11 15 -18 19 -15 26 15 15 136 -12 134 -7 0 -29 -20 -49 -44z m28 -22
c-10 -10 -19 5 -10 18 6 11 8 11 12 0 2 -7 1 -15 -2 -18z"/>
<path d="M5920 5685 c-11 -13 -11 -24 0 -58 7 -23 14 -48 16 -55 10 -33 24 5
24 64 0 67 -13 82 -40 49z"/>
<path d="M6043 5683 c-28 -19 -29 -33 -3 -33 17 0 20 -7 20 -45 0 -25 5 -45
10 -45 6 0 10 8 11 18 0 9 3 41 5 70 5 57 -3 64 -43 35z"/>
<path d="M6397 5693 c-4 -3 -7 -13 -7 -21 0 -13 3 -12 19 2 19 17 20 17 30 -3
15 -27 14 -36 -3 -22 -16 13 -49 4 -43 -13 2 -6 13 -12 25 -14 12 -2 22 -10
22 -18 0 -16 -26 -19 -36 -3 -4 8 -10 7 -18 -1 -14 -14 17 -40 50 -40 36 0 46
23 39 84 -7 55 -8 56 -39 56 -18 0 -36 -3 -39 -7z"/>
<path d="M6520 5684 c0 -12 7 -14 30 -9 17 4 30 2 30 -3 0 -6 -13 -15 -30 -21
-37 -13 -39 -23 -3 -19 21 2 29 -2 31 -16 4 -16 0 -18 -27 -13 -27 6 -31 4
-31 -14 0 -18 5 -20 43 -17 38 3 42 6 45 32 2 16 1 44 -3 63 -5 31 -9 33 -45
33 -30 0 -40 -4 -40 -16z"/>
<path d="M3734 5385 c-19 -14 -19 -15 4 -21 18 -5 22 -13 22 -45 0 -28 4 -39
15 -39 12 0 15 13 15 60 0 51 -3 60 -18 60 -10 0 -27 -7 -38 -15z"/>
<path d="M3882 5388 c-17 -17 -15 -25 8 -31 14 -3 20 -14 20 -31 0 -19 -5 -26
-20 -26 -11 0 -20 -7 -20 -15 0 -10 11 -15 35 -15 l35 0 0 65 c0 61 -1 65 -23
65 -13 0 -28 -5 -35 -12z"/>
<path d="M4258 5403 c-27 -7 -22 -21 9 -25 31 -4 44 -28 15 -28 -23 0 -48 -25
-33 -34 5 -4 12 -2 16 4 11 18 35 11 35 -11 0 -17 -5 -20 -25 -17 -17 4 -25 1
-25 -8 0 -19 86 -19 93 -1 5 14 -8 101 -18 118 -6 9 -36 10 -67 2z"/>
<path d="M4383 5384 c-22 -20 -23 -24 -8 -19 54 20 65 18 65 -9 0 -18 -8 -30
-31 -41 -42 -22 -32 -40 22 -40 l44 0 -4 60 c-5 82 -35 98 -88 49z"/>
<path d="M6046 5391 c-15 -17 -16 -20 -2 -28 9 -5 16 -26 18 -53 5 -71 23 -52
26 28 3 78 -8 91 -42 53z"/>
<path d="M5895 5390 c-8 -14 3 -30 21 -30 21 0 17 -38 -6 -50 -11 -6 -20 -18
-20 -26 0 -12 11 -14 55 -12 31 2 54 7 53 13 -2 6 -11 9 -20 8 -22 -3 -22 -2
-1 41 13 29 14 38 3 51 -14 17 -75 21 -85 5z"/>
<path d="M6408 5399 c-10 -5 -18 -18 -18 -27 0 -27 29 -62 45 -56 8 4 15 1 15
-5 0 -16 -33 -27 -38 -13 -5 17 -32 15 -32 -2 0 -17 22 -26 60 -26 36 0 53 27
37 55 -6 11 -11 33 -11 50 -1 33 -26 44 -58 24z m42 -41 c0 -13 -23 -5 -28 10
-2 7 2 10 12 6 9 -3 16 -11 16 -16z"/>
<path d="M6516 5391 c-22 -24 -22 -24 21 -12 36 10 52 -1 34 -23 -6 -7 -17
-29 -26 -49 -13 -33 -14 -37 0 -37 13 0 81 117 73 126 -2 1 -22 6 -44 9 -32 6
-43 3 -58 -14z"/>
<path d="M2630 5332 c0 -17 13 -22 27 -10 11 9 16 9 23 -2 7 -11 11 -10 25 3
15 16 13 17 -29 17 -25 0 -46 -4 -46 -8z"/>
<path d="M8557 5063 c-14 -13 -6 -23 18 -23 28 0 34 15 9 24 -19 7 -19 7 -27
-1z"/>
<path d="M8570 5010 c0 -5 7 -10 15 -10 8 0 15 5 15 10 0 6 -7 10 -15 10 -8 0
-15 -4 -15 -10z"/>
<path d="M8680 5055 c-10 -13 -9 -15 7 -15 10 0 24 -5 31 -12 7 -7 12 -8 12
-2 0 6 -8 18 -19 28 -16 15 -19 15 -31 1z"/>
<path d="M3810 4961 c-18 -45 -10 -66 28 -69 30 -3 32 -1 27 21 -5 19 -2 25
14 30 12 3 21 1 21 -4 0 -15 40 -51 41 -36 0 6 4 3 9 -8 7 -15 9 -9 7 25 -1
25 -6 44 -12 44 -5 -1 -30 5 -55 12 -62 19 -66 18 -80 -15z"/>
<path d="M3758 4863 c7 -3 16 -2 19 1 4 3 -2 6 -13 5 -11 0 -14 -3 -6 -6z"/>
<path d="M4283 4803 c-13 -2 -23 -11 -23 -20 0 -13 3 -13 16 -2 13 10 17 10
25 -2 14 -23 11 -28 -18 -26 -23 2 -28 -3 -36 -36 -5 -20 -7 -44 -3 -52 7 -20
47 -28 80 -15 29 11 29 11 23 77 -6 57 -19 86 -37 81 -3 0 -15 -3 -27 -5z m31
-99 c8 -21 -1 -34 -24 -34 -22 0 -34 15 -26 35 7 20 42 19 50 -1z"/>
<path d="M4390 4761 c0 -36 3 -40 27 -43 17 -2 29 -10 31 -20 3 -15 -4 -18
-33 -18 -25 0 -35 -4 -32 -12 2 -8 21 -13 48 -13 l44 0 -2 40 c-1 22 -2 55 -2
73 0 31 -2 32 -41 32 -40 0 -40 0 -40 -39z m65 -1 c4 -6 -7 -10 -25 -10 -18 0
-29 4 -25 10 3 6 15 10 25 10 10 0 22 -4 25 -10z"/>
<path d="M5925 4790 c-7 -11 -1 -13 33 -10 16 1 22 -4 22 -18 0 -16 -5 -19
-21 -15 -40 11 -55 -55 -18 -80 27 -19 54 -11 68 19 15 33 14 87 -1 102 -15
15 -74 16 -83 2z m53 -94 c3 -13 -1 -17 -14 -14 -11 2 -20 11 -22 22 -3 13 1
17 14 14 11 -2 20 -11 22 -22z"/>
<path d="M7908 4403 c29 -2 74 -2 100 0 26 2 2 3 -53 3 -55 0 -76 -1 -47 -3z"/>
<path d="M8428 4403 c7 -3 16 -2 19 1 4 3 -2 6 -13 5 -11 0 -14 -3 -6 -6z"/>
<path d="M8312 4628 c2 -17 11 -24 31 -26 23 -3 27 0 27 22 0 22 -4 26 -31 26
-26 0 -30 -3 -27 -22z"/>
<path d="M8310 4578 c0 -4 14 -8 30 -8 17 0 30 2 30 4 0 2 -13 6 -30 8 -16 3
-30 1 -30 -4z"/>
<path d="M8636 4575 c-3 -8 -1 -15 4 -15 6 0 10 7 10 15 0 8 -2 15 -4 15 -2 0
-6 -7 -10 -15z"/>
<path d="M6900 4544 c0 -12 3 -14 13 -6 6 5 21 12 32 15 13 3 9 5 -12 6 -24 1
-33 -3 -33 -15z"/>
<path d="M3729 4470 c-22 -19 -23 -21 -6 -30 11 -8 17 -24 17 -50 0 -29 4 -40
15 -40 12 0 15 14 15 64 0 36 -4 67 -9 70 -5 3 -20 -3 -32 -14z"/>
<path d="M3860 4475 c0 -8 9 -15 19 -15 11 0 23 -4 26 -10 4 -6 -8 -10 -29
-10 -29 0 -36 -4 -36 -20 0 -16 5 -19 30 -13 24 4 30 2 30 -12 0 -13 -6 -16
-25 -12 -20 3 -25 1 -23 -12 4 -21 51 -26 67 -7 16 19 17 92 1 111 -16 20 -60
20 -60 0z"/>
<path d="M4267 4476 c-8 -8 -18 -36 -22 -62 -6 -40 -4 -50 11 -61 22 -16 44
-16 65 0 14 10 16 24 10 72 -5 51 -9 60 -27 63 -12 2 -28 -4 -37 -12z m33 -26
c0 -5 -5 -10 -11 -10 -5 0 -7 5 -4 10 3 6 8 10 11 10 2 0 4 -4 4 -10z m0 -55
c0 -8 -9 -15 -19 -15 -10 0 -21 7 -25 15 -4 11 1 15 19 15 16 0 25 -6 25 -15z"/>
<path d="M6048 4476 c-32 -11 -37 -36 -9 -36 17 0 20 -8 23 -47 2 -27 8 -48
13 -48 12 0 19 125 8 135 -4 4 -20 2 -35 -4z"/>
<path d="M6543 4482 c-17 -11 -20 -44 -3 -50 8 -3 12 -1 8 3 -9 9 9 35 23 35
5 0 9 -7 9 -15 0 -8 -5 -15 -12 -15 -9 0 -9 -3 0 -12 17 -17 15 -58 -2 -58 -8
0 -16 7 -20 15 -9 23 -28 18 -24 -7 5 -34 51 -47 79 -22 18 16 20 27 16 68 -5
58 -36 82 -74 58z"/>
<path d="M6413 4472 c-8 -5 -9 -19 -1 -52 16 -69 17 -70 28 -70 6 0 10 27 10
65 0 65 -7 76 -37 57z"/>
<path d="M2421 4278 c-64 -14 -39 -29 71 -40 89 -9 248 -5 296 8 38 11 25 31
-24 38 -69 9 -292 5 -343 -6z"/>
<path d="M3343 3493 c9 -2 25 -2 35 0 9 3 1 5 -18 5 -19 0 -27 -2 -17 -5z"/>
<path d="M7373 1985 c-18 -20 -16 -25 7 -25 13 0 20 7 20 20 0 23 -10 25 -27
5z"/>
</g>
</svg>
